<?xml version="1.0" encoding="UTF-8"?>
<svg
   xmlns:dc="http://purl.org/dc/elements/1.1/"
   xmlns:cc="http://creativecommons.org/ns#"
   xmlns:rdf="http://www.w3.org/1999/02/22-rdf-syntax-ns#"
   xmlns:svg="http://www.w3.org/2000/svg"
   xmlns="http://www.w3.org/2000/svg"
   veiwBox="0 0 466 112"
   width="466"
   height="112"
   preserveAspectRatio="xMinYMin meet"
   version="1.1">
  <g
     id="layer1"
     transform="translate(-16.67767,-927.84192)">
    <path
       style="fill:#ffffff;fill-opacity:1"
       d="m 440.70501,955.2677 c 6.48109,8e-5 14.21546,2.90047 23.20313,8.70117 1.14578,0.42976 1.79031,0.6446 1.93359,0.64453 2.1842,7e-5 3.79552,-2.14836 4.83399,-6.44531 l 1.61132,0 c 0.64448,1.00268 0.96675,1.75463 0.9668,2.25586 l 0,24.49219 c -5e-5,0.42974 -0.32232,0.64458 -0.9668,0.64453 -1.14588,5e-5 -2.64979,-3.33003 -4.51171,-9.99024 l -3.22266,-5.15625 c -5.97986,-6.01555 -12.74743,-9.02336 -20.30273,-9.02343 -7.12568,7e-5 -11.74481,3.54499 -13.85743,10.63476 -0.21485,1.18171 -0.32228,2.04108 -0.32226,2.57813 -2e-5,3.11529 1.50389,5.26372 4.51172,6.44531 2.93617,1.28912 10.88538,3.86724 23.84765,7.73438 5.33524,2.18428 9.73953,4.54756 13.21289,7.08984 6.44525,5.33533 9.66791,11.88803 9.66797,19.65823 -6e-5,8.7012 -4.18951,15.5761 -12.56836,20.625 -3.43755,1.5039 -6.87504,2.2558 -10.3125,2.2558 l -2.57812,0 c -5.08467,0 -12.06709,-2.3633 -20.94727,-7.0898 -1.3965,-0.4297 -2.36329,-0.6445 -2.90039,-0.6445 l -1.28906,0 c -3.29428,0 -5.76498,2.4707 -7.41211,7.4121 -0.35808,0.2148 -0.78777,0.3222 -1.28906,0.3222 -1.46811,-0.6087 -2.4349,-1.3606 -2.90039,-2.2558 l 0,-0.3223 c 0.71614,0.4297 1.36067,0.6445 1.93359,0.6445 1.82617,-5.3711 4.61913,-8.0566 8.37891,-8.0566 1.64712,0 5.94399,1.7188 12.89062,5.1562 4.0462,1.9336 8.12822,2.9004 12.2461,2.9004 l 0.96679,0 c 12.0312,0 19.76557,-6.0156 23.20313,-18.0468 0.42962,-2.8288 0.64447,-4.5475 0.64453,-5.1563 -6e-5,-6.4453 -2.36334,-11.8164 -7.08985,-16.11327 l 0,0.32227 c 3.86713,3.7598 5.80072,8.7012 5.80079,14.8242 -7e-5,8.6296 -4.18951,15.5046 -12.56836,20.625 -3.6882,1.5039 -7.23312,2.2559 -10.63477,2.2559 l -1.61133,0 c -5.19209,0 -12.1745,-2.3633 -20.94726,-7.0899 -1.3965,-0.4296 -2.3633,-0.6445 -2.90039,-0.6445 l -2.57813,0 c -2.57813,0 -4.61914,2.041 -6.12305,6.123 -0.28646,1.0743 -0.60872,1.6114 -0.96679,1.6114 -1.50391,-0.1791 -2.25586,-0.8236 -2.25586,-1.9336 l 0.32226,-1.6113 -0.32226,-1.6114 c 0,-0.2148 0.10742,-0.5371 0.32226,-0.9668 l -0.32226,-1.6113 0.32226,-1.2891 -0.32226,-1.6113 c 0,-0.2148 0.10742,-0.5371 0.32226,-0.9668 l -0.32226,-1.6113 0.32226,-1.2891 -0.32226,-1.6113 c 0,-0.2148 0.10742,-0.5371 0.32226,-0.9668 l -0.32226,-1.6113 0.32226,-1.2891 -0.32226,-1.6113 c 0,-0.2148 0.10742,-0.5371 0.32226,-0.9668 l -0.32226,-1.6113 0.32226,-1.2891 -0.32226,-1.6113 c 0,-0.2149 0.10742,-0.5371 0.32226,-0.9668 l -0.32226,-1.6114 0.32226,-1.289 -0.32226,-1.6114 c 0,-0.2148 0.10742,-0.537 0.32226,-0.9667 l -0.32226,-1.93364 c 0.21484,-0.42966 0.32226,-0.75192 0.32226,-0.9668 l 0.9668,0 c 1.18164,4e-5 1.93359,2.25594 2.25586,6.76754 2.57812,7.9135 6.33788,13.8217 11.2793,17.7246 -2e-5,-0.2148 0.1074,-0.3222 0.32226,-0.3222 6.26626,6.2305 13.46352,9.3457 21.5918,9.3457 9.45308,-1.3965 14.17964,-6.0156 14.17969,-13.8574 -5e-5,-3.5449 -1.82622,-6.0156 -5.47852,-7.4121 -4.29692,-1.7188 -13.96487,-5.2637 -29.0039,-10.6348 -4.08205,-1.96938 -7.51955,-4.44008 -10.3125,-7.41212 l 0,-0.32227 c 2.64973,2.64978 7.69855,5.44275 15.14648,8.37889 15.18225,4.7266 24.09826,8.2715 26.74805,10.6348 l 0.32226,0 c -2.90043,-3.1868 -12.35355,-7.1614 -28.35937,-11.92384 -7.91343,-3.36585 -12.74741,-6.05139 -14.50196,-8.05664 0,0.21488 -0.10742,0.3223 -0.32226,0.32226 -3.86719,-5.1562 -5.80078,-9.77534 -5.80078,-13.85742 l 0,-2.57813 c 0,-6.44524 3.33007,-12.03117 9.99023,-16.75781 4.04621,-2.3632 8.66535,-3.54484 13.85742,-3.54492 m -13.85742,16.43555 c -1e-5,1.82623 0.85937,3.97467 2.57813,6.44531 l 0.64453,0 c -1.28908,-1.71869 -1.93361,-3.65228 -1.9336,-5.80078 -10e-6,-5.87233 3.43749,-10.06178 10.3125,-12.56836 1.82615,-0.21477 3.22264,-0.32219 4.18946,-0.32227 6.87496,8e-5 13.32027,2.5782 19.33593,7.73438 l 0,-0.32227 c -6.2305,-5.8007 -13.21292,-8.70109 -20.94726,-8.70117 -7.01825,8e-5 -11.63738,3.43757 -13.85742,10.3125 -0.21486,1.11009 -0.32228,2.18431 -0.32227,3.22266 m 47.05078,-11.92383 0.32227,0 c 1.50385,1.03848 2.2558,2.22012 2.25586,3.54492 l 0,25.13672 -1.28906,0.32227 c -1.50397,-0.60868 -2.57819,-1.46806 -3.22266,-2.57813 l 1.61133,0.32227 0.32226,0 c 0.42963,4e-5 0.64448,-0.2148 0.64453,-0.64454 l 0,-24.16992 c -5e-5,-0.57284 -0.2149,-1.21737 -0.64453,-1.93359 m -47.05078,1.61133 c -4.26107,4.26113 -6.40951,6.83926 -6.44531,7.73437 l 0.32226,0 c 3.50911,-3.50904 5.65755,-6.08717 6.44532,-7.73437 l -0.32227,0 m 39.31641,7.73437 0.64453,0.32227 3.54492,-3.86719 0,-0.64453 c -0.32232,7e-5 -1.7188,1.39655 -4.18945,4.18945 m -0.9668,-1.93359 0,0.64453 0.32227,0 c 0.28641,7e-5 0.82351,-0.53704 1.61132,-1.61133 l -0.32226,0 c -1.07427,0.28653 -1.61138,0.60879 -1.61133,0.9668 m -46.08398,5.80078 c 0.28645,6e-5 2.0052,-1.71869 5.15625,-5.15625 l 0,-0.64453 c -3.43751,2.93626 -5.15626,4.86985 -5.15625,5.80078 m 48.01757,-2.57813 c 0.2148,0.42976 0.32222,0.75202 0.32227,0.9668 0.28641,7e-5 1.2532,-0.96673 2.90039,-2.90039 l 0,-0.9668 -3.22266,2.90039 m -48.33984,4.83399 0,0.9668 c 0.28646,5e-5 2.00521,-1.71869 5.15625,-5.15625 l 0,-0.9668 c -0.28646,6e-5 -2.00521,1.71881 -5.15625,5.15625 m 49.30664,-2.57813 0.64453,0.32227 1.61133,-1.93359 0,-0.64454 c -0.32232,7e-5 -1.07427,0.75202 -2.25586,2.25586 m -49.30664,5.47852 0,0.64453 c 0.28646,6e-5 2.11263,-1.82611 5.47852,-5.47851 l 0,-0.64454 c -0.28647,7e-5 -2.11264,1.82624 -5.47852,5.47852 m 50.27344,-3.86719 c 0.0716,0.42975 0.2864,0.64459 0.64453,0.64453 l 0.64453,-0.96679 0,-0.9668 c -0.32232,6e-5 -0.75201,0.42975 -1.28906,1.28906 m -49.95117,6.12305 0,0.9668 6.12304,-5.80079 c -0.21485,-0.42962 -0.32227,-0.75189 -0.32226,-0.96679 -0.28647,6e-5 -2.22006,1.93365 -5.80078,5.80078 m 0.64453,2.25586 0,0.64453 c 0.28645,5e-5 2.32747,-2.04096 6.12304,-6.12305 l 0,-0.64453 c -0.28646,6e-5 -2.32748,2.04107 -6.12304,6.12305 m 6.76758,-4.51172 -6.12305,6.44531 c 0.0716,0.42974 0.28645,0.64458 0.64453,0.64453 l 6.12305,-6.44531 c -1e-5,-0.42963 -0.21486,-0.64447 -0.64453,-0.64453 m -5.15625,8.37891 0.64453,0.32226 6.76758,-7.08984 -0.64454,0 c -0.28647,5e-5 -2.54232,2.25591 -6.76757,6.76758 m 0.96679,1.61132 0.64453,0.32227 c 0.28646,5e-5 2.75716,-2.47065 7.41211,-7.41211 l -0.64453,-0.32227 c -0.28647,6e-5 -2.75717,2.47076 -7.41211,7.41211 m 9.02344,-6.44531 -7.41211,7.73438 0,0.32226 0.32227,0 c 0.28645,5e-5 2.86457,-2.57807 7.73437,-7.73437 l -0.64453,-0.32227 m -6.12305,9.02344 0.64453,0.32226 c 0.28645,5e-5 2.972,-2.6855 8.05665,-8.05664 l 0,-0.32226 -0.64454,0 c -0.28647,5e-5 -2.97201,2.6856 -8.05664,8.05664 m 1.61133,1.28906 0.64453,0.32227 8.37891,-8.70117 -0.64453,0 c -0.46552,0.17908 -3.25848,2.97205 -8.37891,8.3789 m 1.61133,0.9668 0.64453,0.32226 c 0.25064,5e-5 3.15103,-2.90034 8.70117,-8.70117 l 0,-0.32226 -0.64453,0 c -0.32228,0.0358 -3.22267,2.93624 -8.70117,8.70117 m 1.93359,0.9668 0.64453,0.32226 8.70118,-9.02344 0,-0.32226 -0.32227,0 c -0.25067,5e-5 -3.25848,3.00786 -9.02344,9.02344 m 1.9336,0.64453 0,0.32226 0.64453,0 c 0.25063,4e-5 3.25844,-3.00777 9.02344,-9.02344 l 0,-0.32226 -0.64454,0 c -0.25067,5e-5 -3.25848,3.00786 -9.02343,9.02344 m 1.93359,0.96679 0.64453,0.32227 9.02344,-9.3457 0,-0.32227 -0.32227,0 c -0.25067,5e-5 -3.3659,3.11528 -9.3457,9.3457 m 1.93359,0.64453 0,0.32227 0.64454,0 c 0.25063,4e-5 3.36586,-3.11519 9.3457,-9.3457 l -0.64453,-0.32227 c -0.25068,5e-5 -3.36591,3.11528 -9.34571,9.3457 m 1.9336,0.9668 0.64453,0 c 0.25063,4e-5 3.36586,-3.11519 9.3457,-9.3457 l 0,-0.32227 -0.32226,0 c -0.25068,5e-5 -3.47334,3.2227 -9.66797,9.66797 m 1.93359,0.64453 c 0.21482,4e-5 0.53709,0.10746 0.9668,0.32227 l 9.3457,-9.66797 -0.64453,-0.32227 c -0.25068,5e-5 -3.47334,3.2227 -9.66797,9.66797 m 11.60156,-9.02343 -9.3457,9.66796 0,0.32227 0.32227,0 c 0.25062,4e-5 3.47328,-3.22262 9.66797,-9.66797 l -0.64454,-0.32226 m 1.9336,0.64453 -9.3457,9.66797 0,0.32226 0.64453,0 c 0.25062,4e-5 3.47327,-3.22262 9.66797,-9.66797 -0.21489,5e-5 -0.53715,-0.10737 -0.9668,-0.32226 m -7.41211,10.63474 0.64453,0 c 0.25062,10e-5 3.47327,-3.2226 9.66797,-9.66795 l -0.64453,0 c -0.25069,5e-5 -3.47335,3.2227 -9.66797,9.66795 m 1.93359,0.6446 0.9668,0 c 0.25062,0 3.47327,-3.22267 9.66797,-9.66802 l -0.9668,0 c -0.25069,5e-5 -3.47334,3.2227 -9.66797,9.66802 m 2.25586,0.6445 0.64453,0 c 0.25062,0 3.36585,-3.11521 9.34571,-9.34572 l 0,-0.32226 -0.32227,0 c -0.25069,4e-5 -3.47335,3.22269 -9.66797,9.66798 m 11.2793,-9.02345 -9.3457,9.66795 c 0.2148,0 0.53707,0.1075 0.96679,0.3223 l 9.34571,-9.66799 c -0.21489,5e-5 -0.53716,-0.10738 -0.9668,-0.32226 m 1.93359,0.96679 -9.02343,9.34566 0,0.3223 0.32226,0 c 0.25061,0 3.36584,-3.11519 9.3457,-9.34569 l -0.64453,-0.32227 m -7.41211,10.31246 0.9668,0 c 0.25061,1e-4 3.25842,-3.0077 9.02344,-9.02339 l -0.64453,-0.32227 c -0.2507,4e-5 -3.36593,3.11527 -9.34571,9.34566 m 2.25586,0.6446 0,0.3222 0.32227,0 c 0.25061,10e-5 3.15099,-2.9003 8.70117,-8.70113 l 0,-0.32227 -0.32227,0 c -0.32231,0.0359 -3.2227,2.93624 -8.70117,8.7012 m 9.99024,-7.7344 -8.37891,8.7012 0.64453,0 c 0.46545,-0.179 3.25842,-2.972 8.37891,-8.37893 l -0.64453,-0.32227 m -6.44532,9.668 0.64454,0 c 0.28641,0 2.86453,-2.5781 7.73437,-7.73441 l 0,-0.32226 -0.32226,0 c -0.28652,4e-5 -2.97206,2.68557 -8.05665,8.05667 m 9.02344,-6.76761 -7.41211,7.73441 0.64453,0 c 0.28641,0 2.75712,-2.4707 7.41211,-7.41214 l -0.64453,-0.32227 m -49.6289,1.28911 0.32226,0 c 1.07421,0 2.14843,3.2226 3.22266,9.6679 1.61132,4.5118 3.97459,8.4864 7.08984,11.9239 l 0,0.3222 c -5.12045,-5.1562 -8.23568,-10.0976 -9.3457,-14.8242 l -1.28906,-7.0898 m 44.15039,7.4121 0,0.3222 0.32226,0 c 0.28641,10e-5 2.54227,-2.2558 6.76758,-6.7675 l 0,-0.6446 c -0.28651,10e-5 -2.64979,2.3633 -7.08984,7.0899 m 1.28906,1.289 0,0.3223 0.32226,0 c 0.28641,0 2.43485,-2.1484 6.44532,-6.4453 l 0,-0.3223 -0.32227,0 c -0.28651,0 -2.43495,2.1485 -6.44531,6.4453 m 0.9668,1.2891 c 0.21479,0.4297 0.32221,0.752 0.32226,0.9668 0.28641,0 2.32742,-2.041 6.12305,-6.1231 l 0,-0.9668 -6.44531,6.1231 m 1.28906,1.9336 0,0.6445 c 0.2864,0 2.22,-1.9336 5.80078,-5.8008 l 0,-0.6445 c -0.28652,0 -2.22011,1.9336 -5.80078,5.8008 m 0.64453,1.9336 0,0.6445 0.32227,0 c 0.2864,0 2.00515,-1.7187 5.15625,-5.1562 l 0,-0.9668 c -0.28652,0 -2.11269,1.8262 -5.47852,5.4785 m -50.27344,-4.1895 0,0.6446 c 0.42969,0 0.64453,-0.2149 0.64453,-0.6446 l 0,-0.6445 c -0.42969,0.072 -0.64453,0.2865 -0.64453,0.6445 m 0.9668,1.2891 -0.9668,1.289 0,0.9668 c 0.28646,1e-4 0.82357,-0.537 1.61133,-1.6113 0,-0.4296 -0.21485,-0.6445 -0.64453,-0.6445 m 49.62891,5.4785 0,0.3223 0.32226,0 c 0.2506,0 1.86192,-1.6113 4.83399,-4.834 l 0,-0.6445 c -0.28652,0 -2.00527,1.7187 -5.15625,5.1562 m -48.66211,-3.5449 c -10e-6,0.1074 -0.64454,0.8594 -1.9336,2.2558 l 0,0.6446 c 0.28646,0 1.14583,-0.8594 2.57813,-2.5782 l -0.64453,-0.3222 m 48.66211,7.0898 0.32226,0 c 3.00776,-2.9004 4.51166,-4.8339 4.51172,-5.8008 -3.22271,2.6856 -4.83404,4.6192 -4.83398,5.8008 m -47.69532,-5.4785 -2.90039,3.2227 0,0.9668 c 0.28646,0 1.4681,-1.1817 3.54492,-3.545 0,-0.4296 -0.21485,-0.6445 -0.64453,-0.6445 m -2.90039,6.1231 0,0.6445 c 0.32226,0 1.82617,-1.5039 4.51172,-4.5117 l 0,-0.3223 -0.32226,0 c -0.32228,0 -1.71876,1.3965 -4.18946,4.1895 m 5.15625,-2.9004 -5.15625,5.4785 0,0.9668 c 0.28646,0 2.22005,-1.9336 5.80078,-5.8008 -1e-5,-0.4297 -0.21485,-0.6445 -0.64453,-0.6445 m 44.79492,5.4785 0.32227,0 c 2.57807,-2.5423 3.86713,-4.1537 3.86719,-4.834 -2.79303,2.3633 -4.18951,3.9746 -4.18946,4.834 m -43.50586,-3.8672 -6.44531,6.7676 0,0.6445 c 0.28646,0 2.64974,-2.3633 7.08985,-7.0898 l -0.64454,-0.3223 m 1.28907,1.2891 -3.54492,3.8671 c 1.0384,10e-5 2.43488,-1.0742 4.18945,-3.2226 -10e-6,-0.4297 -0.21486,-0.6445 -0.64453,-0.6445 m 0,3.2226 0.64453,0 c 0.32225,0 0.75194,-0.4297 1.28906,-1.2891 l 0,-0.3222 -0.32226,0 c -0.28647,0 -0.82358,0.5371 -1.61133,1.6113 m 2.57812,-0.3223 0,0.6446 0.9668,0 c -1e-5,-0.4297 -0.21486,-0.6445 -0.64453,-0.6446 l -0.32227,0 m 39.63867,1.2891 -0.96679,1.2891 0.32226,0 0.9668,-1.2891 -0.32227,0 m -95.06836,-67.35351 38.02735,0 c 0.53707,0.42976 0.96676,0.64461 1.28906,0.64453 l 0,2.25586 -0.32226,0 c -6.08728,8e-5 -9.84704,2.14851 -11.2793,6.44531 -0.64456,2.25593 -0.96683,4.51179 -0.9668,6.76758 l 0,45.43943 c -3e-5,5.2637 1.28904,8.8086 3.86719,10.6348 l 0,-0.3223 c -1.71878,-1.7545 -2.57815,-4.7623 -2.57813,-9.0234 l 0,-45.43947 c -2e-5,-6.12298 1.82615,-10.205 5.47852,-12.24609 2.39905,-0.64446 4.76233,-0.96672 7.08984,-0.9668 l 0,-1.93359 -0.32226,-0.64453 0.32226,0 c 1.28902,0.75203 1.93355,1.71882 1.9336,2.90039 l 0,1.61133 c -6.26632,7e-5 -10.1335,2.1485 -11.60157,6.44531 -0.64456,2.72142 -0.96682,5.29954 -0.96679,7.73438 l 0,43.18357 c -3e-5,6.6602 1.39645,9.9903 4.18945,9.9903 0.78773,0.2148 1.96937,0.3222 3.54492,0.3222 l 0.32227,0 c 0.53707,0.4297 0.96676,0.6446 1.28906,0.6446 l 0,2.5781 -38.02734,0 c -0.32227,0 -0.75196,-0.4297 -1.28907,-1.2891 l 0,-1.9336 1.61133,0 c 6.23046,0 9.8828,-3.1152 10.95703,-9.3457 0.64452,-7.4121 0.96679,-12.7832 0.9668,-16.1133 l 0,-4.8339 c -1e-5,-5.15626 -0.10743,-12.67578 -0.32226,-22.55864 l -0.32227,0 c -10e-6,-0.21479 0.10741,-0.32221 0.32227,-0.32227 -2e-5,-9.23821 -1.18166,-13.85735 -3.54493,-13.85742 -5.37109,-0.358 -8.05664,-1.21738 -8.05664,-2.57813 l 0,-0.32226 c 6.01562,0.75202 9.02343,1.6114 9.02344,2.57812 l 0,-0.32226 c -1.75457,-2.14837 -5.08464,-3.22258 -9.99023,-3.22266 l 0,-0.32226 -0.64454,-0.9668 0,-1.61133 m 10.63477,2.90039 0,0.32227 0.32227,0 c 0.32225,7e-5 0.75194,-0.42962 1.28906,-1.28907 l -0.64453,0 c -0.32228,8e-5 -0.64455,0.32234 -0.9668,0.9668 m 0.9668,1.61133 0.64453,0.32227 c 0.28644,7e-5 1.25324,-0.96673 2.90039,-2.9004 l -0.9668,0 c -0.28647,8e-5 -1.14584,0.85945 -2.57812,2.57813 m 1.28906,1.61133 0,0.32226 0.32227,0 c 0.32225,7e-5 1.82615,-1.50383 4.51171,-4.51172 l -0.64453,0 c -0.32228,8e-5 -1.71876,1.39656 -4.18945,4.18946 m 0.64453,1.93359 c 0.0716,0.42976 0.28645,0.6446 0.64453,0.64453 l 6.44531,-6.76758 -0.96679,0 c -0.28648,8e-5 -2.32749,2.04109 -6.12305,6.12305 m 0.64453,2.25586 0,0.64453 c 0.25064,7e-5 3.25845,-3.00774 9.02344,-9.02344 l -0.64453,0 c -0.46552,0.17912 -3.25848,2.97208 -8.37891,8.37891 m 0.32227,2.25586 0,0.9668 c 0.28644,6e-5 4.15362,-3.86712 11.60156,-11.60157 l -0.9668,0 c -0.32229,0.0717 -3.86721,3.61661 -10.63476,10.63477 m 0.32226,2.57813 0,0.64453 c 0.42968,-0.14317 5.04881,-4.76231 13.85743,-13.85743 l -0.64454,0 c -0.42971,0.14331 -4.834,4.5476 -13.21289,13.2129 m 0,2.57812 0,0.9668 c 6.87498,-6.37364 10.31248,-10.02598 10.3125,-10.95703 l 0,-0.32227 c -0.32229,0.0717 -3.75978,3.50918 -10.3125,10.3125 m 0,2.90039 0.64453,0.32227 8.70118,-9.02344 0,-0.64453 c -0.25068,6e-5 -3.36591,3.11529 -9.34571,9.3457 m 0.32227,2.25586 0,0.9668 c 0.25063,5e-5 3.15102,-2.90034 8.70117,-8.70117 l 0,-0.9668 c -0.32229,0.0359 -3.22268,2.93626 -8.70117,8.70117 m 0,2.90039 0,0.64453 c 0.25063,5e-5 3.15102,-2.90034 8.70117,-8.70117 l 0,-0.64453 c -0.32229,0.0359 -3.22268,2.93625 -8.70117,8.70117 m 0,2.57813 0,0.96679 c 0.25063,5e-5 3.15102,-2.90034 8.70117,-8.70117 l 0,-0.9668 c -0.32229,0.0359 -3.22268,2.93626 -8.70117,8.70118 m 0.32226,2.57812 0,0.64453 c 0.46548,-0.17899 3.25845,-2.97195 8.37891,-8.3789 l 0,-0.64454 c -0.46552,0.1791 -3.25848,2.97206 -8.37891,8.37891 m 0,2.57813 0,0.96679 c 0.46548,-0.17899 3.25845,-2.97196 8.37891,-8.3789 l 0,-0.9668 c -0.46552,0.17909 -3.25848,2.97205 -8.37891,8.37891 m 0,2.90039 0,0.64453 c 0.46548,-0.179 3.25845,-2.97196 8.37891,-8.37891 l 0,-0.64453 c -0.46552,0.17909 -3.25848,2.97205 -8.37891,8.37891 m 0,2.57812 0,0.9668 c 0.46548,-0.179 3.25845,-2.97197 8.37891,-8.37891 l 0,-0.96679 c -0.46552,0.17908 -3.25848,2.97204 -8.37891,8.3789 m 0,2.90037 0,0.6446 c 0.46548,-0.179 3.25845,-2.97201 8.37891,-8.37895 l 0,-0.64453 c -0.46552,0.17908 -3.25848,2.97204 -8.37891,8.37888 m 0,2.5781 0,0.9668 c 0.46548,-0.179 3.25845,-2.9719 8.37891,-8.37886 l 0,-0.9668 c -0.46552,0.17908 -3.25848,2.97204 -8.37891,8.37886 m 0,2.9004 0,0.6446 c 0.46548,-0.179 3.25845,-2.972 8.37891,-8.37894 l 0,-0.64453 c -0.46552,0.17908 -3.25848,2.97207 -8.37891,8.37887 m 0,2.5782 0,0.9668 c 0.46548,-0.1791 3.25845,-2.972 8.37891,-8.3789 l 0,-0.96684 c -0.46552,0.17907 -3.25848,2.97204 -8.37891,8.37894 m 0,2.9004 0,0.6445 c 0.46548,-0.179 3.25845,-2.972 8.37891,-8.3789 l 0,-0.6446 c -0.46552,0.1791 -3.25848,2.9721 -8.37891,8.379 m -0.32226,2.9003 0,0.9668 c 0.25063,10e-5 3.15102,-2.9003 8.70117,-8.7011 l 0,-0.9668 c -0.32229,0.036 -3.22268,2.9362 -8.70117,8.7011 m -0.32227,3.2227 0,0.6445 c 0.25064,0 3.25845,-3.0078 9.02344,-9.0234 l 0,-0.6445 c -0.25067,0 -3.25848,3.0078 -9.02344,9.0234 m -0.32226,3.8672 c 0.25063,0 3.36587,-3.1152 9.3457,-9.3457 l 0,-0.9668 c -6.23049,5.6576 -9.34572,9.0951 -9.3457,10.3125 m -0.32227,2.9004 c 0.25064,0 3.47329,-3.2227 9.66797,-9.668 l 0,-0.6445 c -6.44533,5.9798 -9.66798,9.4173 -9.66797,10.3125 m -1.28906,3.8672 0.32227,0 10.63476,-10.9571 0,-0.6445 c -7.3047,6.8034 -10.95704,10.6706 -10.95703,11.6016 m -2.25586,4.5117 0.64453,0 c 0.28645,0 4.4759,-4.1895 12.56836,-12.5684 l 0,-0.6445 c -0.42971,0.1432 -4.834,4.5475 -13.21289,13.2129 m 2.57813,0 0.64453,0 c 0.28644,0 3.72394,-3.4375 10.3125,-10.3125 l 0,-0.6445 c -0.42971,0.179 -4.08205,3.8313 -10.95703,10.957 m 2.90039,0 0.64453,0 c 0.28644,0 2.86456,-2.5781 7.73437,-7.7344 l 0,-0.6445 c -0.46552,0.179 -3.25848,2.972 -8.3789,8.3789 m 2.57812,0 0.64453,0 c 0.28644,0 2.22003,-1.9336 5.80078,-5.8008 l 0,-0.6445 c -0.28648,0 -2.43492,2.1484 -6.44531,6.4453 m 6.76758,-4.5117 -4.18945,4.5117 0.96679,0 c 0.28644,0 1.5755,-1.2891 3.86719,-3.8672 -3e-5,-0.4297 -0.21487,-0.6445 -0.64453,-0.6445 m -1.28906,4.5117 0.64453,0 c 0.32224,0 1.07419,-0.752 2.25586,-2.2559 l 0,-0.3222 -0.32227,0 c -0.28648,0 -1.14586,0.8593 -2.57812,2.5781 m 2.57812,0 0.9668,0 c 0.32224,0 0.6445,-0.3223 0.9668,-0.9668 l -0.64454,-0.3223 c -0.32229,0 -0.75198,0.4297 -1.28906,1.2891 m 13.53516,1.289 0.32226,0 c 0.39384,0 1.03837,0.752 1.9336,2.2559 l 0,1.9336 c -5e-5,0.4297 -0.21489,0.6445 -0.64453,0.6445 l -36.73829,0 c -1.32487,0 -2.50651,-0.7519 -3.54492,-2.2558 l 2.25586,0.3222 36.09375,0 c 0.42965,0 0.64449,-0.2148 0.64453,-0.6445 l 0,-1.6113 -0.32226,-0.6446 m -127.72461,-75.41011 49.30664,0 c 9.38145,8e-5 16.47129,2.04109 21.26953,6.12305 l 0.32227,0 -0.32227,0.64453 c 3.86711,3.68822 5.80071,8.30735 5.80078,13.85742 -7e-5,8.62961 -5.26374,14.43038 -15.79101,17.40234 -2.68561,0.64457 -4.40436,0.96684 -5.15625,0.9668 -6e-5,0.64457 4.40423,9.02347 13.21289,25.13677 1.79029,3.2226 3.61646,5.8007 5.47851,7.7343 l 0,-0.3222 c -2.75723,-3.724 -8.55801,-14.0365 -17.40234,-30.93754 l 0,-0.32227 c 13.96477,-2.22001 20.94719,-8.55789 20.94726,-19.01367 -7e-5,-4.69069 -1.93367,-9.30983 -5.80078,-13.85742 l 0.32227,0 c 4.94133,4.72663 7.41203,9.99029 7.41211,15.79102 l 0,0.64453 c -8e-5,8.37895 -4.94148,14.0723 -14.82422,17.08008 -3.86725,0.8236 -5.80084,1.46817 -5.80078,1.93357 8.91595,17.0443 14.6093,27.0345 17.08008,29.9707 1.03833,0.6446 2.64966,0.9668 4.83398,0.9668 l 1.93359,0 c 0.32219,0 0.75187,0.4297 1.28907,1.2891 l 0,1.9336 -21.91407,0 c -1.36073,0 -2.86464,-1.9336 -4.51171,-5.8008 -8.27154,-14.2871 -13.53521,-23.6328 -15.79102,-28.0371 l -11.2793,0 c -0.42972,0.072 -0.64456,0.2865 -0.64453,0.6445 l 0,20.3028 c -3e-5,6.4453 1.71872,9.6679 5.15625,9.6679 l 3.22266,0 c 0.85933,0.3581 1.28902,1.11 1.28906,2.2559 l 0,0.3222 c -4e-5,0.4297 -0.21488,0.6446 -0.64453,0.6446 l -37.70508,0 c -0.53711,-0.6446 -0.9668,-0.9668 -1.28906,-0.9668 l 0,-2.2559 0.9668,0 c 5.83658,0 9.48892,-2.2558 10.95703,-6.7676 0.64452,-2.9361 0.96678,-6.4811 0.96679,-10.6347 l 0,-38.6719 c -1e-5,-7.08978 -0.96681,-10.6347 -2.90039,-10.63477 l -6.44531,-1.28906 c -0.9668,-0.42961 -1.50391,-0.8593 -1.61133,-1.28906 l 0,-0.32227 0.32227,0 c 3.83137,8e-5 6.51692,0.64461 8.05664,1.9336 l 0,-0.32227 c -1.64715,-1.93352 -4.8698,-2.90031 -9.66797,-2.90039 l 0,-0.32226 -0.64453,-0.9668 0,-1.61133 m 10.3125,2.57813 0,0.32226 0.32226,0 c 0.32226,8e-5 0.64452,-0.32219 0.9668,-0.9668 l -0.64453,0 c -0.4297,0.0717 -0.64454,0.28654 -0.64453,0.64454 m 1.28906,1.61132 0,0.32227 0.32227,0 c 0.28644,7e-5 1.14582,-0.8593 2.57812,-2.57813 l -0.64453,0 c -0.32228,8e-5 -1.07423,0.75203 -2.25586,2.25586 m 0.9668,1.61133 0.64453,0.32227 3.86719,-4.18946 -0.64453,0 c -0.28648,8e-5 -1.57554,1.28914 -3.86719,3.86719 m 0.96679,1.61133 0,0.9668 c 0.28645,7e-5 2.43488,-2.14837 6.44532,-6.44532 l -0.9668,0 c -0.28648,8e-5 -2.11265,1.82625 -5.47852,5.47852 m 0.64454,2.25586 0,0.64453 c 0.46548,-0.17897 3.25844,-2.97193 8.3789,-8.37891 l -0.64453,0 c -0.28648,8e-5 -2.8646,2.5782 -7.73437,7.73438 m 0.32226,2.25586 0,0.9668 c 0.25064,6e-5 3.36587,-3.11517 9.3457,-9.34571 l 0,-0.96679 c -0.25067,7e-5 -3.3659,3.1153 -9.3457,9.3457 m 41.25,-8.37891 c 0.21479,8e-5 0.53705,0.1075 0.9668,0.32227 l 0.9668,-1.28906 -0.9668,0 c -0.32232,7e-5 -0.64459,0.32234 -0.9668,0.96679 m -29.0039,0 0,33.19336 1.28906,0 0,-31.90429 c 0.0716,-0.42962 0.28643,-0.64446 0.64453,-0.64454 l 14.50195,0 c 7.0898,8e-5 11.92378,1.28914 14.50196,3.86719 l 0,-0.32226 c -2.54238,-3.22259 -8.34315,-4.83391 -17.40235,-4.83399 l -12.89062,0 c -0.42972,0.0717 -0.64456,0.28653 -0.64453,0.64453 m 30.61523,1.28907 0.64453,0.32226 c -6e-5,-0.10735 0.64447,-0.8593 1.93359,-2.25586 l -0.64453,0 c -0.28651,8e-5 -0.93104,0.64461 -1.93359,1.9336 m 1.28906,1.28906 0.64453,0.32226 c 0.2864,7e-5 1.2532,-0.96672 2.90039,-2.90039 l -0.96679,0 c -0.28652,8e-5 -1.1459,0.85945 -2.57813,2.57813 m 1.28906,1.61133 0,0.32226 0.32227,0 c 0.2864,7e-5 1.57546,-1.28899 3.86719,-3.86719 l -0.64453,0 c -0.28653,8e-5 -1.46816,1.18172 -3.54493,3.54493 m 5.15625,-2.90039 -4.18945,4.51171 0,0.64454 0.32227,0 c 0.3222,6e-5 1.82611,-1.50384 4.51172,-4.51172 -7e-5,-0.42962 -0.21491,-0.64446 -0.64454,-0.64453 m -50.5957,9.99023 0.64453,0.32227 8.70117,-9.02344 0,-0.64453 c -0.25067,7e-5 -3.3659,3.1153 -9.3457,9.3457 m 52.20703,-8.70117 -5.15625,5.47851 0.64453,0.32227 5.15625,-5.47852 -0.64453,-0.32226 -36.73828,0.96679 0,29.64844 11.60156,0 c 8.45047,4e-5 13.92898,-2.04097 16.43555,-6.12304 1.93353,-2.86454 2.90033,-6.51688 2.90039,-10.95704 -6e-5,-6.48105 -1.61139,-10.45566 -4.83398,-11.92382 -2.75722,-0.85931 -5.33534,-1.289 -7.73438,-1.28907 l -17.72461,0 c -0.42972,0.0717 -0.64456,0.28653 -0.64453,0.64453 m 32.22656,6.44532 0,0.96679 c 0.2864,7e-5 2.54226,-2.25579 6.76758,-6.76757 l -0.64453,-0.32227 c -0.28653,7e-5 -2.32754,2.04108 -6.12305,6.12305 m -47.37304,3.54492 0,0.9668 c 0.25063,5e-5 3.25844,-3.00775 9.02343,-9.02344 l 0,-0.9668 c -0.25067,7e-5 -3.25848,3.00788 -9.02343,9.02344 m 47.69531,-0.9668 0,0.64453 c 0.2864,6e-5 2.7571,-2.47064 7.41211,-7.41211 l 0,-0.64453 c -0.28653,7e-5 -2.75723,2.47077 -7.41211,7.41211 m 8.05664,-5.80078 -7.73437,8.05664 0,0.9668 c 0.46543,-0.17898 3.25839,-2.97195 8.3789,-8.37891 -7e-5,-0.42962 -0.21491,-0.64446 -0.64453,-0.64453 m -55.75195,9.66797 0,0.64453 c 0.25063,6e-5 3.25844,-3.00775 9.02343,-9.02344 l 0,-0.64453 c -0.25067,7e-5 -3.25848,3.00788 -9.02343,9.02344 m 56.71875,-7.73438 -9.02344,9.34571 0,0.64453 c 0.25059,5e-5 3.47324,-3.2226 9.66797,-9.66797 l -0.64453,-0.32227 m -56.71875,10.3125 0,0.9668 c 0.25063,5e-5 3.25844,-3.00775 9.02343,-9.02344 l 0,-0.96679 c -0.25067,6e-5 -3.25848,3.00787 -9.02343,9.02343 m 57.36328,-8.3789 c -6.66022,6.6244 -9.9903,10.27674 -9.99024,10.95703 l 0,0.32227 c 0.2864,5e-5 3.83132,-3.54487 10.63477,-10.63477 -7e-5,-0.42963 -0.21492,-0.64447 -0.64453,-0.64453 m -57.36328,11.2793 0,0.64453 c 0.25063,5e-5 3.25844,-3.00776 9.02343,-9.02344 l 0,-0.64453 c -0.25067,6e-5 -3.25848,3.00787 -9.02343,9.02344 m 46.08398,3.86718 0.32227,0 11.92383,-12.24609 0,-0.64453 c -8.16413,7.66281 -12.24616,11.95968 -12.2461,12.89062 m -4.51172,6.44532 0.64453,0 c 0.57286,4e-5 6.05137,-5.37105 16.43555,-16.11329 l 0,-0.96679 c -0.35815,0.10748 -6.0515,5.80083 -17.08008,17.08008 m -41.57226,-7.73438 0,0.9668 c 0.25063,5e-5 3.25844,-3.00776 9.02343,-9.02344 l 0,-0.9668 c -0.25067,6e-5 -3.25848,3.00787 -9.02343,9.02344 m 58.33008,-6.44531 -12.89063,13.21289 0.32227,0 c 0.57285,4e-5 4.7623,-4.08199 12.56836,-12.2461 -8e-5,-0.21478 0.10734,-0.53705 0.32226,-0.96679 l -0.32226,0 m -58.33008,9.3457 0,0.64453 c 0.25063,5e-5 3.25844,-3.00776 9.02343,-9.02344 l 0,-0.64453 c -0.25067,6e-5 -3.25848,3.00787 -9.02343,9.02344 m 0,2.57813 0,0.96679 c 0.25063,5e-5 3.25844,-3.00776 9.02343,-9.02343 l 0,-0.9668 c -0.25067,5e-5 -3.25848,3.00786 -9.02343,9.02344 m 57.36328,-8.37891 -8.05664,8.37891 c 1.36061,4e-5 3.93873,-2.36324 7.73437,-7.08985 l 0.64453,-1.28906 -0.32226,0 m -57.36328,11.2793 0,0.64453 c 0.25063,4e-5 3.25844,-3.00777 9.02343,-9.02344 l 0,-0.64453 c -0.25067,5e-5 -3.25848,3.00786 -9.02343,9.02344 m 0,2.57812 0,0.9668 c 0.25063,4e-5 3.25844,-3.00777 9.02343,-9.02344 l 0,-0.9668 c -0.25067,5e-5 -3.25848,3.00786 -9.02343,9.02344 m 0,2.90037 0,0.6446 c 0.25063,0 3.25844,-3.00782 9.02343,-9.02348 l 0,-0.64454 c -0.25067,5e-5 -3.25848,3.00786 -9.02343,9.02342 m 0,2.5781 0,0.9668 c 0.25063,1e-4 3.25844,-3.0077 9.02343,-9.02339 l 0,-0.9668 c -0.25067,4e-5 -3.25848,3.00785 -9.02343,9.02339 m 29.9707,0.3223 0.64453,0.3223 c 4.94136,-5.04881 7.41206,-7.73436 7.41211,-8.05666 -0.57297,4e-5 -3.25851,2.57816 -8.05664,7.73436 m -29.9707,2.5781 0,0.6446 c 6.23044,-5.765 9.34568,-9.09505 9.3457,-9.99027 -0.25067,4e-5 -3.36591,3.11527 -9.3457,9.34567 m 29.0039,-4.5117 c 0.0716,0.4297 0.28642,0.6446 0.64453,0.6446 l 5.15625,-5.47857 -0.64453,0 c -0.57296,4e-5 -2.29171,1.61137 -5.15625,4.83397 m -0.96679,-1.61131 0,0.32227 0.32226,0 c 0.28642,3e-5 1.36063,-1.07419 3.22266,-3.22266 -0.85942,4e-5 -2.04106,0.96683 -3.54492,2.90039 m -0.9668,-1.93359 c 0.0716,0.42972 0.28642,0.64457 0.64453,0.64453 l 0.9668,-1.28906 -0.9668,0 c -0.42973,0.0716 -0.64457,0.28649 -0.64453,0.64453 m 3.86719,7.0898 c 0.0716,0.4298 0.28641,0.6446 0.64453,0.6446 l 6.44531,-6.76761 0,-0.96679 c -0.28651,3e-5 -2.64979,2.36331 -7.08984,7.0898 m -19.01367,-6.44527 0,21.59177 c -3e-5,5.2637 1.28903,8.8086 3.86718,10.6348 l 0,-0.3223 c -1.71878,-1.7545 -2.57815,-4.7623 -2.57812,-9.0234 l 0,-21.59181 1.61133,-0.32226 10.63476,0 0,-0.32227 c -4e-5,-0.42965 -0.21488,-0.64449 -0.64453,-0.64453 l -12.89062,0 m -11.92383,9.99027 0,0.9668 c 0.25063,0 3.25844,-3.0078 9.02343,-9.0235 l 0,-0.96677 c -0.25067,3e-5 -3.25848,3.00787 -9.02343,9.02347 m 31.90429,-1.6114 0.64454,0.3223 6.44531,-6.7676 0,-0.32224 -0.32227,0 c -0.28651,3e-5 -2.54237,2.25584 -6.76758,6.76754 m 0.9668,1.2891 c 0.2148,0.4297 0.32222,0.752 0.32227,0.9668 0.28641,0 2.54226,-2.2558 6.76757,-6.7676 l 0,-0.6445 -0.32226,0 -6.76758,6.4453 m -32.87109,3.2227 0,0.6445 c 0.25063,0 3.25844,-3.0078 9.02343,-9.0235 l 0,-0.6445 c -0.25067,0 -3.25848,3.0079 -9.02343,9.0235 m 33.83789,-0.9668 0.64453,0.3222 6.44531,-6.7676 0,-0.3222 -0.32226,0 c -0.28652,0 -2.54237,2.2559 -6.76758,6.7676 m -33.83789,3.5449 0,0.9668 c 0.25063,0 3.25844,-3.0078 9.02343,-9.0235 l 0,-0.9668 c -0.25067,10e-5 -3.25848,3.0079 -9.02343,9.0235 m 34.80468,-1.9336 0.64454,0.3223 6.44531,-6.7676 0,-0.3223 -0.32227,0 c -0.28651,0 -2.54237,2.2559 -6.76758,6.7676 m 1.28907,1.6113 0,0.6445 c 0.2864,1e-4 2.54226,-2.2558 6.76758,-6.7675 l 0,-0.3223 -0.32227,0 c -0.28652,0 -2.43495,2.1485 -6.44531,6.4453 m -36.09375,3.2227 0,0.6445 c 0.25063,0 3.25844,-3.0078 9.02343,-9.0234 l 0,-0.6446 c -0.25067,10e-5 -3.25848,3.0079 -9.02343,9.0235 m 36.73828,-1.2891 0.64453,0.3223 6.44531,-6.7676 0,-0.3223 -0.32226,0 c -0.28652,10e-5 -2.54238,2.2559 -6.76758,6.7676 m -37.06055,5.1563 c 0.25064,0 3.36587,-3.1153 9.3457,-9.3457 l 0,-0.9668 c -6.23048,5.6575 -9.34571,9.095 -9.3457,10.3125 m 38.34961,-3.545 0,0.6446 c 0.28641,0 2.54226,-2.2559 6.76758,-6.7676 l 0,-0.6445 c -0.28652,0 -2.54238,2.2558 -6.76758,6.7675 m 0.9668,1.6114 0,0.6445 c 0.2864,0 2.54226,-2.2558 6.76758,-6.7676 l 0,-0.3222 -0.32227,0 c -0.28652,0 -2.43495,2.1484 -6.44531,6.4453 m -39.63867,4.8339 0.32226,0 9.3457,-9.6679 0,-0.6446 c -6.44533,5.9799 -9.66798,9.4174 -9.66796,10.3125 m 40.2832,-2.9003 0.64453,0.3222 c 0.2864,0 2.43484,-2.1484 6.44531,-6.4453 l 0,-0.6445 -0.32226,0 c -0.28652,0 -2.54238,2.2559 -6.76758,6.7676 m -41.25,6.7675 c 0.28644,0 3.83136,-3.5449 10.63476,-10.6347 l 0,-0.9668 c -7.08986,6.5527 -10.63477,10.4199 -10.63476,11.6015 m 42.53906,-5.1562 0,0.6445 c 0.2864,0 2.54226,-2.2558 6.76758,-6.7676 l 0,-0.3222 -0.32227,0 c -0.28652,0 -2.43495,2.1484 -6.44531,6.4453 m 0.9668,1.6113 0,0.6445 0.32226,0 c 0.2864,10e-5 2.43484,-2.1484 6.44532,-6.4453 l 0,-0.6445 -0.32227,0 c -0.28652,0 -2.43496,2.1485 -6.44531,6.4453 m -46.72852,8.7012 0.64453,0 c 0.42968,-0.1432 4.83397,-4.5475 13.21289,-13.2129 l 0,-0.6445 c -0.42971,0.1432 -5.04884,4.7623 -13.85742,13.8574 m 47.69532,-6.7676 0,0.3223 0.32226,0 c 0.2864,0 2.43484,-2.1485 6.44531,-6.4453 l 0,-0.3223 -0.32226,0 c -0.28652,0 -2.43496,2.1484 -6.44531,6.4453 m 0.96679,1.6113 0,0.6446 0.32227,0 c 0.2864,0 2.43483,-2.1485 6.44531,-6.4453 l 0,-0.6446 -0.32227,0 c -0.28652,0 -2.43495,2.1485 -6.44531,6.4453 m -35.12695,-6.123 -10.95703,11.2793 0.96679,0 c 0.28645,0 3.83137,-3.5449 10.63477,-10.6348 -2e-5,-0.4297 -0.21487,-0.6445 -0.64453,-0.6445 m 36.09375,8.0566 0,0.3223 0.32226,0 c 0.2864,0 2.43484,-2.1484 6.44532,-6.4453 l 0,-0.3223 -0.32227,0 c -0.28652,0 -2.43496,2.1485 -6.44531,6.4453 m -44.15039,3.2227 0.64453,0 c 0.46548,-0.179 3.25844,-2.972 8.37891,-8.3789 l 0,-0.3223 -0.32227,0 c -0.32229,0.036 -3.22268,2.9362 -8.70117,8.7012 m 45.11719,-1.6113 c 0.0716,0.4296 0.28639,0.6445 0.64453,0.6445 l 6.12304,-6.4453 0,-0.6446 -0.32226,0 c -0.28653,10e-5 -2.43496,2.1485 -6.44531,6.4454 m -36.09375,-5.1563 -6.44532,6.7676 0.9668,0 c 0.28644,0 2.32745,-2.041 6.12305,-6.1231 -3e-5,-0.4296 -0.21487,-0.6445 -0.64453,-0.6445 m 37.38281,6.7676 0.64453,0 c 0.2864,0 2.21999,-1.9336 5.80078,-5.8008 l 0,-0.6445 c -0.28653,0 -2.43496,2.1484 -6.44531,6.4453 m -40.92774,0 0.64454,0 c 0.32224,0 1.71872,-1.3965 4.18945,-4.1895 l 0,-0.6445 c -0.25068,0 -1.862,1.6113 -4.83399,4.834 m 48.01758,-4.834 -4.51172,4.834 0.9668,0 c 0.3222,0 1.71868,-1.3965 4.18945,-4.1895 -7e-5,-0.4296 -0.21491,-0.6445 -0.64453,-0.6445 m -1.61133,4.834 0.64454,0 c 0.28639,0 1.14576,-0.8594 2.57812,-2.5781 l 0,-0.6446 c -0.28653,0 -1.36075,1.0743 -3.22266,3.2227 m -43.82812,0 0.9668,0 c 0.28643,0 1.1458,-0.8594 2.57812,-2.5781 l -0.64453,-0.3223 c -0.28648,0 -1.25328,0.9668 -2.90039,2.9004 m 4.18945,-1.6113 c -0.8594,0.9668 -1.28909,1.5039 -1.28906,1.6113 l 0.64453,0 c 0.32224,0 0.75193,-0.4297 1.28906,-1.2891 l -0.64453,-0.3222 m 42.2168,1.6113 0.9668,0 c 0.32219,0 0.75188,-0.4297 1.28906,-1.2891 l -0.64453,-0.3222 c -0.28653,0 -0.82364,0.5371 -1.61133,1.6113 m -29.64844,1.289 0.32227,0 c 1.50386,1.0385 2.25581,2.2201 2.25586,3.545 l -0.32227,1.289 -37.38281,0 c -1.32488,0 -2.50651,-0.7519 -3.54492,-2.2558 l 2.25586,0.3222 36.09375,0 c 0.32222,0 0.64449,-0.3222 0.96679,-0.9668 -4e-5,-0.358 -0.21488,-1.0026 -0.64453,-1.9336 m 44.79492,0 c 0.96671,0 1.71867,1.0743 2.25586,3.2227 l 0,0.9668 c -8e-5,0.4297 -0.21493,0.6445 -0.64453,0.6445 l -21.5918,0 c -2.1485,-0.5371 -3.22271,-1.289 -3.22265,-2.2558 l 1.61133,0.3222 21.26953,0 c 0.4296,0 0.64444,-0.2148 0.64453,-0.6445 l 0,-0.6445 -0.32227,-1.6114 m -161.5625,-75.41011 46.08399,0 c 6.91075,8e-5 13.35606,2.14851 19.33594,6.44531 l -0.32227,0.64453 c 3.65227,3.50919 5.47844,7.59121 5.47852,12.2461 -8e-5,7.59119 -5.69343,13.28455 -17.08008,17.08008 l 0,0.64453 c 1.18158,0.21488 2.04096,0.3223 2.57812,0.32226 10.31244,-4.08198 15.46868,-9.34565 15.46875,-15.79101 l 0,-2.57813 c -7e-5,-3.43744 -1.6114,-7.08978 -4.83398,-10.95703 l 0.32226,0 c 4.51165,4.44017 6.76751,9.16673 6.76758,14.17969 -7e-5,7.30473 -4.83405,12.78324 -14.50195,16.43555 l 0,0.32226 c 11.38665,5.65757 17.08,12.31777 17.08008,19.98047 l 0,3.2227 c -8e-5,7.233 -4.72664,12.6041 -14.17969,16.1132 -3.68821,1.2891 -7.87766,1.9336 -12.56836,1.9336 l -44.47266,0 c -1.32487,0 -2.50651,-0.7519 -3.54492,-2.2558 l 0,-0.3223 c 0.71614,0.4297 1.36068,0.6445 1.9336,0.6445 l 41.57226,0 c 14.14382,0 23.38209,-3.8671 27.71484,-11.6015 1.07415,-2.5781 1.61126,-4.9414 1.61133,-7.0899 l 0,-1.6113 c -7e-5,-4.9414 -1.93366,-9.1308 -5.80078,-12.5684 l 0,0.3223 c 3.00774,3.0079 4.51165,6.6602 4.51172,10.957 l 0,1.6114 c -7e-5,9.5247 -6.66022,15.5403 -19.98047,18.0468 -1.89784,0.4297 -4.47596,0.6446 -7.73437,0.6446 l -43.1836,0 c -0.5013,0 -1.25325,-0.3223 -2.25586,-0.9668 l 0,-2.2559 2.57813,0 c 6.87499,0 10.31249,-4.6191 10.3125,-13.8574 l 0,-44.15039 c -1e-5,-6.01556 -1.18165,-9.02337 -3.54492,-9.02344 -5.15626,-0.64446 -7.73438,-1.61126 -7.73438,-2.90039 3.83138,7e-5 6.83919,0.75202 9.02344,2.25586 l 0,-0.32227 c -1.96941,-1.93352 -4.65495,-2.90031 -8.05664,-2.90039 l -1.28906,0 c -0.53711,-0.64446 -0.9668,-0.96672 -1.28907,-0.9668 l 0,-1.93359 m 9.99024,1.93359 0,0.64454 0.32226,0 c 0.42968,7e-5 0.64452,-0.21477 0.64453,-0.64454 l -0.96679,0 m 1.28906,1.61133 0,0.32227 0.32227,0 c 0.28644,7e-5 0.93097,-0.64446 1.93359,-1.9336 l -0.64453,0 c -0.28647,8e-5 -0.82358,0.53719 -1.61133,1.61133 m 0.9668,1.28907 c 0.21483,0.42975 0.32225,0.75202 0.32226,0.96679 0.28645,7e-5 1.57551,-1.28899 3.86719,-3.86719 l -0.9668,0 -3.22265,2.9004 m 0.96679,2.25585 0.64454,0.32227 5.15625,-5.47852 -0.64454,0 c -0.28647,8e-5 -2.00522,1.71883 -5.15625,5.15625 m 0.9668,1.61133 0,0.9668 c 0.28644,7e-5 2.86457,-2.57806 7.73438,-7.73438 l -0.9668,0 c -0.28648,8e-5 -2.54234,2.25594 -6.76758,6.76758 m 0.32227,2.57813 0,0.64453 c 0.25063,6e-5 3.47329,-3.22259 9.66797,-9.66797 l 0,-0.32227 -0.32227,0 c -0.25068,8e-5 -3.36591,3.11531 -9.3457,9.34571 m 12.24609,-7.73438 0,31.58203 1.28906,0 0,-30.29296 c 0.0716,-0.42962 0.28643,-0.64446 0.64453,-0.64454 l 15.14649,0 c 3.54487,8e-5 6.44526,0.96687 8.70117,2.90039 l 0,-0.32226 c -2.25591,-2.57805 -5.80083,-3.86711 -10.63477,-3.86719 l -14.50195,0 c -0.42971,0.0717 -0.64456,0.28653 -0.64453,0.64453 m 25.45898,0 0.64454,0.32227 c 0.32221,7e-5 0.64447,-0.32219 0.96679,-0.9668 l -0.96679,0 c -0.42974,0.0717 -0.64459,0.28653 -0.64454,0.64453 m 1.28907,1.61133 0.64453,0.32227 1.61133,-1.9336 -0.64453,0 c -0.28652,8e-5 -0.82363,0.53719 -1.61133,1.61133 m -38.67188,8.37891 0,0.96679 c 0.25064,7e-5 3.36587,-3.11516 9.34571,-9.3457 l 0,-0.9668 c -0.25068,8e-5 -3.36591,3.11531 -9.34571,9.34571 m 39.96094,-7.08985 0,0.64453 0.32227,0 c 0.2864,7e-5 1.25319,-0.96672 2.90039,-2.90039 l -0.9668,0 c -0.32232,8e-5 -1.07428,0.75203 -2.25586,2.25586 m 4.18945,-1.61132 -3.22265,3.54492 0,0.64453 c 0.2864,7e-5 1.57546,-1.28899 3.86718,-3.86719 l -0.64453,-0.32226 m 1.61133,0.96679 -4.18945,4.51172 0,0.9668 c 0.25059,6e-5 1.86192,-1.61126 4.83398,-4.83399 -6e-5,-0.42961 -0.2149,-0.64446 -0.64453,-0.64453 m -30.29297,0.9668 0,28.35937 7.41211,0 c 8.37886,5e-5 13.74995,-2.79292 16.11328,-8.3789 0.85932,-2.97195 1.28901,-5.87234 1.28907,-8.70117 l 0,-1.28907 c -6e-5,-5.19199 -1.07428,-8.30722 -3.22266,-9.3457 -2.25591,-0.8593 -4.94145,-1.28899 -8.05664,-1.28906 l -12.89063,0 c -0.42971,0.0717 -0.64456,0.28653 -0.64453,0.64453 m -15.46875,9.66797 0,0.64453 c 0.25064,6e-5 3.36587,-3.11517 9.34571,-9.3457 l 0,-0.64454 c -0.25068,7e-5 -3.36591,3.11531 -9.34571,9.34571 m 47.37305,-9.34571 -5.47852,5.80079 0,0.64453 c 0.2864,6e-5 2.32742,-2.04095 6.12305,-6.12305 l -0.64453,-0.32227 m 1.28906,1.28907 -6.44531,6.76758 0,0.96679 c 0.2864,6e-5 2.64968,-2.36322 7.08984,-7.08984 -6e-5,-0.42962 -0.21491,-0.64446 -0.64453,-0.64453 m -48.66211,10.63476 0,0.9668 c 0.25064,6e-5 3.36587,-3.11517 9.34571,-9.3457 l 0,-0.9668 c -0.25068,7e-5 -3.36591,3.1153 -9.34571,9.3457 m 42.2168,-0.96679 0,0.64453 c 0.2864,6e-5 2.97194,-2.68549 8.05664,-8.05664 l 0,-0.64453 c -0.28652,6e-5 -2.97207,2.68561 -8.05664,8.05664 m -0.32227,3.86718 0.32227,0 c -6e-5,-0.25059 3.11517,-3.36582 9.3457,-9.3457 -0.21491,-0.42962 -0.32233,-0.75189 -0.32226,-0.9668 -6.23053,5.69342 -9.34576,9.13092 -9.34571,10.3125 m -41.89453,0 0,0.64453 c 0.25064,6e-5 3.36587,-3.11517 9.34571,-9.3457 l 0,-0.64453 c -0.25068,6e-5 -3.36591,3.1153 -9.34571,9.3457 m 41.57227,2.25586 0,0.64453 c 0.2864,6e-5 3.83132,-3.54486 10.63476,-10.63476 l 0,-0.32227 -0.32226,0 c -0.32233,0.0717 -3.75983,3.50918 -10.3125,10.3125 m -41.57227,0.32227 0,0.9668 c 0.25064,5e-5 3.36587,-3.11518 9.34571,-9.34571 l 0,-0.96679 c -0.25068,6e-5 -3.36591,3.11529 -9.34571,9.3457 m 39.31641,5.47851 0.32226,0 12.89063,-13.21289 0,-0.96679 c -8.80865,8.30734 -13.21295,13.0339 -13.21289,14.17968 m -39.31641,-2.57812 0,0.64453 c 0.25064,5e-5 3.36587,-3.11518 9.34571,-9.3457 l 0,-0.64453 c -0.25068,5e-5 -3.36591,3.11529 -9.34571,9.3457 m 37.70508,6.12305 0.32227,0 c 0.57286,4e-5 5.51426,-4.83394 14.82421,-14.50196 l 0,-0.64453 c -0.28652,6e-5 -5.33534,5.04888 -15.14648,15.14649 m -37.70508,-3.54493 0,0.9668 c 0.25064,5e-5 3.36587,-3.11518 9.34571,-9.3457 l 0,-0.9668 c -0.25068,6e-5 -3.36591,3.11529 -9.34571,9.3457 m 41.89453,1.9336 c 1.36062,-0.17899 4.6907,-3.1868 9.99024,-9.02344 0.21477,-0.39383 0.3222,-0.82351 0.32226,-1.28906 -0.32233,0.0717 -3.75983,3.50916 -10.3125,10.3125 m -41.89453,0.96679 0,0.64454 c 0.25064,4e-5 3.36587,-3.11519 9.34571,-9.34571 l 0,-0.64453 c -0.25068,5e-5 -3.36591,3.11529 -9.34571,9.3457 m 0,2.57813 0,0.9668 c 0.25064,4e-5 3.36587,-3.11519 9.34571,-9.34571 l 0,-0.96679 c -0.25068,5e-5 -3.36591,3.11528 -9.34571,9.3457 m 0,2.90039 0,0.64453 c 0.25064,4e-5 3.36587,-3.11519 9.34571,-9.3457 l 0,-0.64453 c -0.25068,5e-5 -3.36591,3.11528 -9.34571,9.3457 m 0,2.57813 0,0.96677 c 0.25064,10e-5 3.36587,-3.11517 9.34571,-9.34568 l 0,-0.9668 c -0.25068,5e-5 -3.36591,3.11528 -9.34571,9.34571 m 0,2.90037 0,0.6445 c 0.25064,10e-5 3.36587,-3.11515 9.34571,-9.34566 l 0,-0.64453 c -0.25068,5e-5 -3.36591,3.11528 -9.34571,9.34569 m 31.58203,-7.08983 0.9668,0 c 0.32222,4e-5 1.07417,-0.75191 2.25586,-2.25586 -1.93364,0.82361 -3.00786,1.57556 -3.22266,2.25586 m 2.25586,0.64453 0.64453,0.32227 0.32227,-0.64453 0,-0.32227 -0.32227,0 c -0.42973,0.0717 -0.64458,0.2865 -0.64453,0.64453 m -33.83789,9.0234 0,0.9668 c 0.25064,10e-5 3.36587,-3.1152 9.34571,-9.34567 l 0,-0.96679 c -0.25068,4e-5 -3.36591,3.11527 -9.34571,9.34566 m 35.44922,-8.37887 0,0.32227 0.64453,0.32227 0.32227,0 0,-0.32227 c -0.2149,4e-5 -0.53716,-0.10738 -0.9668,-0.32227 m -23.52539,0.9668 0,34.48247 c 0.0716,0.4296 0.28643,0.6445 0.64453,0.6445 l 0.64453,0 0,-33.83791 c 0.0716,-0.42965 0.28643,-0.64449 0.64453,-0.64453 l 9.34571,0 c 7.91336,4e-5 13.17703,1.50394 15.79101,4.51174 l 0,-0.3223 c -2.82882,-3.65229 -8.52218,-5.47846 -17.08008,-5.4785 l -9.3457,0 c -0.42971,0.0716 -0.64456,0.2865 -0.64453,0.64453 m 25.78125,-0.32226 -0.32227,0.64453 0,0.32226 0.32227,0 c 0.42963,4e-5 0.64448,-0.2148 0.64453,-0.64453 l -0.64453,-0.32226 m 0.9668,1.93359 0.64453,0.32227 c 0.32221,3e-5 0.7519,-0.42966 1.28906,-1.28907 l -0.64453,-0.32226 c -0.32232,3e-5 -0.75201,0.42972 -1.28906,1.28906 m -38.67188,8.70114 0,0.6446 c 0.25064,0 3.36587,-3.1152 9.34571,-9.34574 l 0,-0.64453 c -0.25068,4e-5 -3.36591,3.11527 -9.34571,9.34567 m 41.89453,-9.34567 -1.93359,2.25587 0.64453,0.3223 c -5e-5,-0.1074 0.64448,-0.85939 1.93359,-2.25591 l -0.64453,-0.32226 m -0.64453,3.54497 0,0.3222 0.32227,0 c 0.2864,0 1.2532,-0.9667 2.90039,-2.90037 l -0.64453,0 c -0.28652,3e-5 -1.14589,0.85941 -2.57813,2.57817 m -25.78125,-1.2891 0,31.9043 5.47852,0 c 10.24084,0 16.57872,-2.4707 19.01367,-7.4121 1.71869,-3.4017 2.57807,-7.3763 2.57812,-11.9239 -5e-5,-7.0898 -3.00786,-11.2792 -9.02343,-12.5683 -3.93885,-0.42966 -7.48377,-0.64451 -10.63477,-0.64454 l -6.76758,0 c -0.42971,0.0716 -0.64456,0.28644 -0.64453,0.64454 m 26.74805,3.2226 0,0.3223 0.32226,0 c 0.28641,0 1.57547,-1.289 3.86719,-3.8672 l -0.64453,0 c -0.28652,10e-5 -1.46816,1.1817 -3.54492,3.5449 m -42.2168,6.4454 0,0.9668 c 0.25064,0 3.36587,-3.1153 9.34571,-9.3457 l 0,-0.9668 c -0.25068,0 -3.36591,3.1152 -9.34571,9.3457 m 43.1836,-4.834 0,0.6445 c 0.25059,0 1.86192,-1.6113 4.83398,-4.834 l -0.64453,0 c -0.32233,10e-5 -1.71881,1.3965 -4.18945,4.1895 m 5.80078,-3.2227 -5.15625,5.4785 0,0.6446 c 0.2864,0 2.21999,-1.9336 5.80078,-5.8008 l -0.64453,-0.3223 m 1.28906,1.2891 -6.12305,6.4453 0,0.6445 c 0.2864,0 2.54226,-2.2558 6.76758,-6.7676 l -0.64453,-0.3222 m -50.27344,9.6679 0,0.6446 c 0.25064,0 3.36587,-3.1152 9.34571,-9.3457 l 0,-0.6446 c -0.25068,1e-4 -3.36591,3.1153 -9.34571,9.3457 m 51.5625,-8.3789 -7.08984,7.4122 0,0.9667 c 0.2864,10e-5 2.86452,-2.5781 7.73437,-7.7343 -6e-5,-0.4297 -0.21491,-0.6445 -0.64453,-0.6446 m -51.5625,10.9571 0,0.9668 c 0.25064,0 3.36587,-3.1152 9.34571,-9.3457 l 0,-0.9668 c -0.25068,0 -3.36591,3.1152 -9.34571,9.3457 m 52.85156,-9.3457 -8.3789,8.7011 0,0.6446 c 0.25059,0 3.2584,-3.0078 9.02344,-9.0235 l -0.64454,-0.3222 m -8.70117,11.6015 0,0.9668 10.3125,-9.9902 c -0.21491,-0.4297 -0.32233,-0.7519 -0.32226,-0.9668 -0.32234,0.036 -3.65241,3.3659 -9.99024,9.9902 m -44.15039,0.6446 0,0.6445 c 0.25064,0 3.36587,-3.1152 9.34571,-9.3457 l 0,-0.6445 c -0.25068,0 -3.36591,3.1152 -9.34571,9.3457 m 54.46289,-8.3789 c -7.48378,7.5553 -11.24354,11.5299 -11.27929,11.9238 l 0,0.3223 c 0.2864,0 4.261,-3.9746 11.92382,-11.9239 l -0.64453,-0.3222 m -54.78515,12.2461 c 0.25063,0 3.47329,-3.2227 9.66797,-9.668 l 0,-0.9668 c -6.44534,5.9798 -9.66799,9.4173 -9.66797,10.3125 l 0,0.3223 m 35.77148,9.6679 0.9668,0 c 5.65749,-5.4069 11.99538,-11.7448 19.01367,-19.0137 l 0,-0.9667 c -9.66803,9.2741 -15.25396,15.0748 -16.75781,17.4023 -2.14849,1.5397 -3.22271,2.3991 -3.22266,2.5781 m -36.41601,-6.4453 0.32226,0 9.99024,-10.3125 0,-0.6445 c -6.87502,6.3737 -10.31252,10.026 -10.3125,10.957 m 39.63867,6.1231 c 0.85932,0 5.58588,-4.5118 14.17968,-13.5352 1.93353,-1.5039 2.90032,-2.6855 2.9004,-3.5449 -0.35815,0.1074 -6.0515,5.8008 -17.08008,17.0801 m -44.15039,0.6445 0.64453,0 c 0.28645,0 5.013,-4.7266 14.17969,-14.1797 l 0,-0.9668 c -6.91083,6.6244 -11.85223,11.6732 -14.82422,15.1465 m 47.69531,-1.6113 c 1.18158,0 5.04876,-3.545 11.60156,-10.6348 1.07415,-0.6087 1.61126,-1.4681 1.61133,-2.5781 -0.42976,0.1432 -4.83405,4.5475 -13.21289,13.2129 m -45.11719,1.6113 0.64453,0 c 0.28645,0 4.15363,-3.8672 11.60157,-11.6016 l 0,-0.6445 c -0.28649,0 -4.36851,4.082 -12.2461,12.2461 m 56.39649,-10.3125 -6.12305,6.4453 c 2.32741,-1.2891 4.36842,-3.2226 6.12305,-5.8008 l 0.32226,-0.6445 -0.32226,0 m -53.81836,10.3125 0.96679,0 c 0.25064,0 3.15103,-2.9004 8.70118,-8.7012 l 0,-0.9668 c -0.25068,0 -3.47333,3.2227 -9.66797,9.668 m 2.90039,0 0.64453,0 c 0.28644,0 2.32745,-2.041 6.12305,-6.1231 l 0,-0.6445 c -0.28649,0 -2.54234,2.2559 -6.76758,6.7676 m 2.57812,0 0.9668,0 c 0.28644,0 1.36065,-1.0742 3.22266,-3.2227 l 0,-0.9668 c -0.32229,0 -1.71878,1.3965 -4.18946,4.1895 m 2.90039,0 0.64453,0 c 0.42967,0 0.64451,-0.2149 0.64454,-0.6445 l 0,-0.6446 c -0.32229,0 -0.75198,0.4297 -1.28907,1.2891 m -101.29883,-75.73244 35.44922,0 c 0.32223,8e-5 0.75192,0.42977 1.28907,1.28907 l 0,1.61132 -2.25586,0 c -5.58597,8e-5 -8.37894,1.71883 -8.37891,5.15625 l 0,1.61133 c -3e-5,2.04108 3.75974,13.10553 11.2793,33.19336 3.6523,9.73961 5.47847,14.89581 5.47851,15.46871 l 0.32227,0 c -4e-5,-0.2148 0.10738,-0.537 0.32226,-0.9668 -10.74222,-29.21866 -16.1133,-44.47255 -16.11328,-45.76167 l 0,-2.9004 c -2e-5,-3.00773 2.47068,-4.51164 7.41211,-4.51171 l 2.57813,0 c 0.42965,7e-5 0.64449,-0.3222 0.64453,-0.9668 l -0.32227,-1.61133 c 1.50387,0.85945 2.25582,2.14851 2.25586,3.86719 -0.21488,0.6446 -0.85941,0.96687 -1.93359,0.9668 l -3.54492,0 c -3.43753,0.57298 -5.15628,2.07689 -5.15625,4.51171 l 0,1.28907 c -3e-5,2.18431 3.54489,12.71164 10.63476,31.58204 2.57808,7.3763 4.08199,11.1361 4.51172,11.2793 9.02338,-25.81702 13.5351,-39.0299 13.53516,-39.63869 0.21478,-1.46803 0.3222,-2.64967 0.32226,-3.54492 -6e-5,-3.86712 -1.61138,-5.80071 -4.83398,-5.80078 -0.96685,-0.39381 -1.82623,-1.14576 -2.57813,-2.25586 l 0.32227,0 c 2.57807,0.78783 4.1894,1.43237 4.83398,1.93359 l 0.32227,0 c -1.82623,-1.93352 -3.86724,-2.90031 -6.12305,-2.90039 l -0.64453,-0.96679 0,-1.9336 24.16992,0 c 0.32219,8e-5 0.75188,0.42977 1.28907,1.28907 l 0,1.28906 c -8e-5,0.21492 -1.61141,0.85945 -4.83399,1.93359 -4.40436,3.11531 -7.62701,7.73444 -9.66797,13.85742 l -21.59179,59.9414 c -0.42973,0.2149 -0.752,0.3223 -0.9668,0.3223 -1.21749,0 -2.72139,-3.2227 -4.51172,-9.668 l -22.23633,-59.61913 c -1.14584,-2.14837 -3.72396,-3.22259 -7.73437,-3.22266 l -1.9336,-1.93359 0,-0.32227 c 3.04362,7e-5 5.62174,0.85945 7.73438,2.57813 l 0,-0.32227 c -1.9336,-2.14836 -4.51173,-3.22258 -7.73438,-3.22266 l -0.96679,0 c 0,-0.32219 -0.21485,-0.75187 -0.64454,-1.28906 l 0,-1.61133 m 9.34571,3.54492 0.64453,0.32227 1.61133,-1.93359 -0.64453,0 c -0.28647,7e-5 -0.82358,0.53718 -1.61133,1.61132 m 1.28906,1.28907 0.64453,0.32226 2.90039,-3.22265 -0.64453,0 c -0.28647,7e-5 -1.25327,0.96687 -2.90039,2.90039 m 0.9668,1.28906 c 0.21483,0.42976 0.32225,0.75202 0.32226,0.9668 0.28645,7e-5 2.0052,-1.71868 5.15625,-5.15625 l -0.96679,0 -4.51172,4.18945 m 1.28906,1.93359 0,0.64453 c 0.28644,7e-5 2.5423,-2.25578 6.76758,-6.76757 l -0.64453,0 c -0.28648,7e-5 -2.32749,2.04109 -6.12305,6.12304 m 0.64453,1.61133 c 0.21483,0.42976 0.32225,0.75202 0.32227,0.9668 0.25063,7e-5 3.15102,-2.90032 8.70117,-8.70117 l -0.9668,0 -8.05664,7.73437 m 0.9668,2.25586 0,0.64453 c 0.28644,7e-5 3.83136,-3.54485 10.63476,-10.63476 l -0.64453,0 c -0.32229,0.0359 -3.65236,3.36596 -9.99023,9.99023 m 41.89453,-9.02344 0.64453,0.32227 0.9668,-1.28906 -0.64453,0 c -0.32233,7e-5 -0.64459,0.32234 -0.9668,0.96679 m 1.28906,0.9668 c 0.21479,0.42976 0.32221,0.75203 0.32227,0.9668 0.2864,7e-5 1.25319,-0.96673 2.90039,-2.90039 l -0.9668,0 -2.25586,1.93359 m 1.28906,1.93359 0,0.64454 c 0.32221,7e-5 1.82611,-1.50384 4.51172,-4.51172 l -0.64453,0 c -0.28652,7e-5 -1.57558,1.28913 -3.86719,3.86718 m 0.64454,1.9336 0,0.64453 0.32226,0 c 0.2864,7e-5 2.43483,-2.14837 6.44531,-6.44531 l -0.96679,0 c -0.28653,7e-5 -2.22012,1.93366 -5.80078,5.80078 m 16.43554,-6.12305 c 1.50383,0.96687 2.25578,2.04109 2.25586,3.22266 l 0,1.28906 c -2.93627,0.35814 -6.0515,2.18431 -9.3457,5.47852 -3.33015,4.72662 -7.41217,14.71684 -12.2461,29.9707 l -14.50195,39.96097 -0.64453,0.3222 c -1.32491,0 -2.50655,-0.7519 -3.54492,-2.2558 l 0.64453,0 0.64453,0.3222 c 1.07418,0 2.47066,-3.2226 4.18945,-9.6679 11.60151,-32.40559 18.36908,-50.88213 20.30274,-55.42972 3.86712,-6.66008 7.41204,-9.99016 10.63476,-9.99023 1.28899,-0.50123 1.93352,-0.93092 1.9336,-1.28907 l 0,-0.32226 -0.32227,-1.61133 m -52.85156,3.86719 -8.05664,8.3789 c 0.0716,0.42976 0.28644,0.6446 0.64453,0.64454 4.94139,-4.94134 7.41209,-7.62689 7.41211,-8.05664 -2e-5,-0.21478 0.1074,-0.53704 0.32227,-0.9668 l -0.32227,0 m 38.67187,2.57812 c -1.28912,1.39656 -1.93365,2.14851 -1.93359,2.25586 l 0,0.32227 0.32227,0 c 0.28639,7e-5 0.93092,-0.85931 1.93359,-2.57813 l -0.32227,0 m -45.76171,7.73438 0,0.64453 c 0.28644,6e-5 2.64972,-2.36322 7.08984,-7.08984 l 0,-0.64454 c -0.28648,7e-5 -2.64976,2.36335 -7.08984,7.08985 m 0.64453,1.93359 0,0.9668 c 0.28644,6e-5 2.5423,-2.2558 6.76758,-6.76758 l 0,-0.9668 c -0.28649,7e-5 -2.54234,2.25593 -6.76758,6.76758 m 0.64453,2.25586 0,0.32227 0.32226,0 c 0.28644,6e-5 2.43488,-2.14838 6.44532,-6.44532 l 0,-0.64453 c -0.28649,7e-5 -2.54234,2.25593 -6.76758,6.76758 m 0.64453,1.9336 c 0.0716,0.42974 0.28644,0.64458 0.64453,0.64453 l 6.12305,-6.44532 0,-0.96679 c -0.28649,6e-5 -2.54234,2.25592 -6.76758,6.76758 m 7.08984,-4.51172 -6.12304,6.44531 0,0.64453 c 0.28644,5e-5 2.54229,-2.2558 6.76757,-6.76758 l -0.64453,-0.32226 m 0.64453,1.93359 -6.12304,6.44531 0,0.64453 0.32226,0 c 0.28644,6e-5 2.43488,-2.14838 6.44532,-6.44531 -3e-5,-0.42963 -0.21487,-0.64447 -0.64454,-0.64453 m -5.47851,8.70117 0,0.32227 0.32226,0 c 0.28644,5e-5 2.43488,-2.14839 6.44532,-6.44531 l 0,-0.64454 c -0.28649,6e-5 -2.54235,2.25592 -6.76758,6.76758 m 0.64453,1.61133 c 0.21482,0.42974 0.32224,0.752 0.32227,0.9668 l 6.76757,-6.44532 c -0.21487,-0.42963 -0.32229,-0.75189 -0.32226,-0.96679 l -6.76758,6.44531 m 7.08984,-4.18945 -6.12304,6.44531 0,0.64453 c 0.28643,5e-5 2.54229,-2.25581 6.76758,-6.76758 l -0.64454,-0.32226 m -5.47851,8.3789 0,0.64453 0.32226,0 c 0.28644,5e-5 2.43487,-2.14839 6.44532,-6.44531 l 0,-0.64453 -0.32227,0 c -0.28649,5e-5 -2.43492,2.14849 -6.44531,6.44531 m 0.64453,2.25586 0.64453,0.32227 6.12305,-6.44531 0,-0.64454 c -0.28649,5e-5 -2.54235,2.25591 -6.76758,6.76758 m 0.64453,1.61133 c 0.21482,0.42973 0.32224,0.75199 0.32227,0.9668 l 6.76757,-6.44531 c -0.21487,-0.42965 -0.32229,-0.75191 -0.32226,-0.9668 l -6.76758,6.44531 m 7.08984,-4.18945 -6.12304,6.44531 0,0.64453 c 0.28643,4e-5 2.54229,-2.25582 6.76758,-6.76758 l -0.64454,-0.32226 m -5.47851,8.3789 c 0.0716,0.42973 0.28643,0.64457 0.64453,0.64454 l 6.12305,-6.44532 0,-0.64453 -0.32227,0 c -0.28649,4e-5 -2.43492,2.14848 -6.44531,6.44531 m 0.64453,2.25591 0.64453,0.3222 6.12305,-6.44529 0,-0.64453 c -0.28649,4e-5 -2.54235,2.25589 -6.76758,6.76762 m 0.9668,1.6113 0,0.9668 6.76758,-6.44533 c -0.21488,-0.42965 -0.3223,-0.75192 -0.32227,-0.9668 -0.28649,4e-5 -2.43493,2.14847 -6.44531,6.44533 m 0.64453,2.2558 0,0.3223 0.32226,0 c 0.28643,0 2.43487,-2.1484 6.44532,-6.44531 l 0,-0.32226 -0.32227,0 c -0.28649,4e-5 -2.43493,2.14847 -6.44531,6.44527 m 0.64453,1.9336 c 0.0716,0.4298 0.28643,0.6446 0.64453,0.6446 l 6.12305,-6.4453 0,-0.6446 -0.32227,0 c -0.28649,10e-5 -2.43493,2.1485 -6.44531,6.4453 m 0.9668,1.9336 0,0.6446 c 0.28643,0 2.43486,-2.1484 6.44531,-6.4454 l 0,-0.6445 c -0.28649,0 -2.43493,2.1485 -6.44531,6.4453 m 6.76757,-4.5117 -6.12304,6.4453 0,0.6446 0.32226,0 c 0.28643,0 2.43487,-2.1485 6.44532,-6.4454 -4e-5,-0.4296 -0.21488,-0.6445 -0.64454,-0.6445 m -5.47851,8.7012 0,0.3222 0.32226,0 c 0.28643,10e-5 2.43487,-2.1484 6.44532,-6.4453 l 0,-0.3222 -0.32227,0 c -0.28649,0 -2.43493,2.1484 -6.44531,6.4453 m 0.64453,1.6113 c 0.21481,0.4297 0.32223,0.752 0.32227,0.9668 0.28642,0 2.43486,-2.1484 6.44531,-6.4453 l 0,-0.9668 -6.76758,6.4453 m 0.9668,2.2559 0,0.6445 c 0.28642,0 2.43486,-2.1484 6.44531,-6.4453 l 0,-0.6445 c -0.2865,0 -2.43493,2.1484 -6.44531,6.4453 m 6.76758,-4.5117 -6.12305,6.4453 0,0.6445 0.32226,0 c 0.28643,0 2.43486,-2.1484 6.44532,-6.4453 -4e-5,-0.4297 -0.21489,-0.6445 -0.64453,-0.6445 m -5.47852,8.7011 0.64453,0.3223 6.12305,-6.4453 0,-0.3223 -0.32227,0 c -0.2865,0 -2.43493,2.1485 -6.44531,6.4453 m 0.64453,1.9336 0.64453,0.3223 6.12305,-6.4453 0,-0.6446 c -0.2865,10e-5 -2.54236,2.2559 -6.76758,6.7676 m 7.41211,-4.834 -6.44531,6.7676 0,0.6445 c 4.51168,-4.082 6.76753,-6.5527 6.76758,-7.4121 l -0.32227,0 m -1.28906,3.8672 -4.51172,4.834 0,0.6445 c 3.22262,-2.7929 4.83394,-4.6191 4.83398,-5.4785 l -0.32226,0 m -1.61133,4.5117 -2.25586,2.5782 0.64453,0.3222 c 1.28903,-1.4681 1.93356,-2.4349 1.9336,-2.9004 l -0.32227,0 m -152.96875,-97.32418 56.074218,0 c 14.859955,1.1e-4 26.998612,3.97471 36.416012,11.92383 l 0.32227,0 -0.32227,0.64453 c 12.24599,11.8881 18.36903,26.06777 18.36914,42.53906 -1.1e-4,15.39717 -5.26377,28.18036 -15.79101,38.34966 -6.9109,6.3378 -15.504638,10.4199 -25.781251,12.246 -5.156314,0.4297 -10.95709,0.6446 -17.402344,0.6446 l -48.984375,0 c -1.647137,0 -2.613932,-0.4297 -2.90039,-1.2891 l 0,-2.9004 2.90039,0 c 6.803376,0 11.422512,-2.6855 13.857422,-8.0566 1.074201,-3.7956 1.61131,-7.6628 1.611328,-11.6016 l 0,-59.61912 c -1.8e-5,-8.88012 -1.611345,-13.82152 -4.833984,-14.82422 -2.291678,-0.64443 -4.22527,-0.9667 -5.800781,-0.9668 l -2.578125,0 c -1.324874,10e-5 -2.506514,-0.75185 -3.544922,-2.25586 6.946606,1e-4 11.45832,1.18174 13.535156,3.54493 l 0,-0.32227 c -2.649752,-2.79287 -5.979827,-4.18935 -9.990234,-4.18945 l -2.900391,0 c -1.145835,10e-5 -1.897787,-0.42959 -2.255859,-1.28907 l 0,-2.57812 m 12.246093,2.90039 0,0.32227 0.644532,0 c 0.322252,10e-5 0.751939,-0.42959 1.289062,-1.28907 l -0.966797,0 c -0.322278,1.1e-4 -0.644544,0.32237 -0.966797,0.9668 m 1.611328,1.28906 0.644532,0.32227 2.255859,-2.57813 -0.644531,0 c -0.322282,1.1e-4 -1.074234,0.75206 -2.25586,2.25586 m 1.611329,0.9668 0,0.64453 0.322265,0 c 0.286442,10e-5 1.575504,-1.28896 3.867188,-3.86719 l -0.966797,0 c -0.286477,1.1e-4 -1.360695,1.07432 -3.222656,3.22266 m 1.289062,1.61133 0,0.64453 c 0.286441,1e-4 2.112611,-1.82607 5.478516,-5.47852 l -0.644532,0 c -0.250672,1.1e-4 -1.861998,1.61143 -4.833984,4.83399 m 0.966797,1.61133 0,0.64453 0.322266,0 c 0.28644,9e-5 2.649718,-2.36319 7.089843,-7.08985 l -0.966797,0 c -0.286482,1.1e-4 -2.434917,2.14854 -6.445312,6.44532 m 0.644531,2.25585 0.644531,0.32227 8.701172,-9.02344 -0.644531,0 c -0.322292,0.0359 -3.22268,2.9363 -8.701172,8.70117 m 0.644531,1.61133 c 0.214825,0.42978 0.322247,0.75205 0.322266,0.9668 0.322246,-0.0715 4.082008,-3.83128 11.279297,-11.2793 l -0.966797,0 -10.634766,10.3125 m 0.644532,2.57813 0,0.64453 c 0.429667,-0.14314 4.941381,-4.65485 13.535156,-13.53516 l -0.644531,0 c -0.358105,0.0717 -4.654976,4.36859 -12.890625,12.89063 m 0.322265,2.25586 0,0.96679 c 0.286438,9e-5 5.120418,-4.83389 14.501953,-14.50195 l 0,-0.9668 c -0.286492,1.1e-4 -5.120472,4.83409 -14.501953,14.50196 m 48.984375,-13.85742 c 0.07155,0.42979 0.286389,0.64463 0.644532,0.64453 0.429617,10e-5 0.644461,-0.21474 0.644531,-0.64453 l -1.289063,0 m 1.933594,1.28906 0.644531,0.32226 0.644532,-0.96679 0,-0.32227 -0.322266,0 c -0.322337,10e-5 -0.644603,0.32237 -0.966797,0.9668 m -33.837891,0 0,97.64646 1.289063,0 0,-96.3574 c 0.07158,-0.42959 0.28642,-0.64443 0.644531,-0.64453 l 16.757813,0 c 10.312434,1e-4 17.617114,2.57822 21.914062,7.73437 l -0.322265,0 c -4.296949,-3.86709 -11.386785,-5.80068 -21.269532,-5.80078 l -14.824218,0 c -0.429729,0.0717 -0.644572,0.28656 -0.644532,0.64453 l 0,94.42381 16.757813,0 0.644531,-0.3222 0,0.3222 c 4.798114,0 10.061781,-1.6113 15.791016,-4.834 10.097572,-8.0566 15.146392,-22.6659 15.146482,-43.82809 -9e-5,-18.58391 -3.65243,-32.01163 -10.957029,-40.2832 0.214765,9e-5 0.322187,-0.10733 0.322265,-0.32227 -5.156323,-6.01552 -13.105534,-9.02333 -23.847656,-9.02343 l -16.757812,0 c -0.429725,0.0717 -0.644569,0.28656 -0.644532,0.64453 m 35.449219,0.96679 0.644531,0.32227 c 0.322193,10e-5 0.75188,-0.42959 1.289063,-1.28906 l 0,-0.32227 -0.644531,0 c -0.322339,10e-5 -0.752027,0.42979 -1.289063,1.28906 m 1.933594,0.9668 0,0.32227 0.322266,0 c 0.286383,10e-5 0.823492,-0.53701 1.611328,-1.61133 l 0,-0.32227 -0.322266,0 c -0.286534,1e-4 -0.823643,0.53721 -1.611328,1.61133 m -54.140625,13.21289 0,0.64453 c 0.286438,9e-5 5.012995,-4.72647 14.179687,-14.17968 l 0,-0.64454 c -0.286492,1.1e-4 -5.01305,4.72666 -14.179687,14.17969 m 57.363281,-14.17969 c -1.289139,1.39659 -1.933669,2.14854 -1.933594,2.25586 l 0.644532,0.32227 c 0.322189,10e-5 1.074141,-0.75185 2.255859,-2.25586 -0.214922,10e-5 -0.537187,-0.10732 -0.966797,-0.32227 m -0.322265,3.54493 0.644531,0.32226 2.578125,-2.90039 -0.644531,0 c -0.286538,10e-5 -1.145913,0.85948 -2.578125,2.57813 m 4.189453,-1.9336 -2.900391,3.22266 c 0.07154,0.42978 0.286379,0.64463 0.644531,0.64453 l 3.222657,-3.54492 c -0.214927,1e-4 -0.537192,-0.10732 -0.966797,-0.32227 m -61.230469,15.14649 0,0.64453 c 0.286438,8e-5 5.012995,-4.72648 14.179687,-14.17969 l 0,-0.64453 c -0.286492,10e-5 -5.01305,4.72666 -14.179687,14.17969 m 59.619141,-10.3125 0,0.32226 0.322265,0 c 0.286378,10e-5 1.575439,-1.28896 3.86719,-3.86718 l -0.64453,0 c -0.28655,9e-5 -1.468185,1.18173 -3.544925,3.54492 m 0.966796,1.61133 0.644532,0.32226 c 0.322183,9e-5 1.718667,-1.39639 4.189457,-4.18945 l 0,-0.32227 -0.64454,0 c -0.32235,10e-5 -1.71883,1.39658 -4.189449,4.18946 m 5.800779,-3.22266 -4.511716,4.83398 0,0.32227 0.322266,0 c 0.25057,9e-5 1.86189,-1.61124 4.83398,-4.83399 l -0.64453,-0.32226 m -66.386716,14.82422 0,0.64453 c 0.286438,8e-5 5.012995,-4.72648 14.179687,-14.17969 l 0,-0.64453 c -0.286492,10e-5 -5.01305,4.72665 -14.179687,14.17969 m 62.841796,-8.37891 c 0.0715,0.42978 0.28638,0.64462 0.64453,0.64453 l 5.15625,-5.47851 -0.64453,-0.32227 c -0.28655,10e-5 -2.00529,1.71884 -5.15625,5.15625 m 0.9668,1.9336 0.64453,0.32226 5.47851,-5.80078 0,-0.32227 -0.32226,0 c -0.28655,10e-5 -2.22014,1.93369 -5.80078,5.80079 m -63.808596,9.02343 0,0.64453 c 0.286438,8e-5 5.012995,-4.72648 14.179687,-14.17968 l 0,-0.64453 c -0.286492,9e-5 -5.01305,4.72665 -14.179687,14.17968 m 64.775386,-7.41211 0,0.64453 0.32227,0 c 0.28637,9e-5 2.43481,-2.14835 6.44531,-6.44531 l -0.64453,-0.32226 c -0.28655,9e-5 -2.32756,2.0411 -6.12305,6.12304 m 9.34571,-6.44531 0.32226,0 c 12.89052,12.53263 19.33583,27.35684 19.33594,44.47266 -1.1e-4,21.2337 -9.23839,36.7025 -27.71484,46.4062 -6.660239,3.2227 -15.361402,4.834 -26.103519,4.834 l -54.46289,0 c -1.861983,0 -3.258466,-0.7519 -4.189453,-2.2558 l 0,-0.3223 0.644531,0.3223 61.875,0 c 16.292237,0 29.612541,-7.3047 39.960941,-21.9141 5.37098,-8.916 8.05652,-18.58394 8.05664,-29.0039 -1.2e-4,-15.93418 -5.90831,-30.11385 -17.72461,-42.53906 m -1.9336,1.61133 -6.76757,7.08984 0.64453,0.32227 6.76758,-7.08985 -0.64454,-0.32226 -72.187496,15.14648 0,0.64453 c 0.286438,8e-5 5.012995,-4.72648 14.179687,-14.17968 l 0,-0.64453 c -0.286492,9e-5 -5.01305,4.72664 -14.179687,14.17968 m 66.386716,-6.44531 0,0.9668 7.73438,-7.41211 c -0.21494,-0.4296 -0.32236,-0.75187 -0.32227,-0.9668 -0.28655,9e-5 -2.75725,2.47079 -7.41211,7.41211 m 8.37891,-5.80078 -7.73438,8.05664 0,0.64453 c 0.46541,-0.17896 3.25838,-2.97192 8.37891,-8.3789 l -0.64453,-0.32227 m -74.765626,14.82422 0,0.64453 c 0.286438,7e-5 5.012995,-4.72649 14.179687,-14.17969 l 0,-0.64453 c -0.286492,9e-5 -5.01305,4.72665 -14.179687,14.17969 m 67.675786,-4.83399 0,0.9668 c 0.25056,8e-5 3.15095,-2.90031 8.70117,-8.70117 l 0,-0.64453 -0.32227,0 c -0.46559,0.17912 -3.25856,2.97209 -8.3789,8.3789 m -67.675786,7.41211 0,0.9668 c 0.286438,7e-5 5.012995,-4.72649 14.179687,-14.17969 l 0,-0.96679 c -0.286492,8e-5 -5.01305,4.72664 -14.179687,14.17968 m 77.021486,-14.17968 c -5.72926,5.90828 -8.62965,8.91609 -8.70117,9.02343 l 0,0.64453 c 0.25056,8e-5 3.36579,-3.11515 9.3457,-9.3457 l -0.64453,-0.32226 m -8.37891,11.27929 0,0.9668 c 0.25056,7e-5 3.58064,-3.33 9.99024,-9.99023 l 0,-0.64454 -0.32227,0 c -0.25075,9e-5 -3.4734,3.22274 -9.66797,9.66797 m -68.642576,5.80078 0,0.64454 c 0.286438,6e-5 5.012995,-4.7265 14.179687,-14.17969 l 0,-0.64453 c -0.286492,8e-5 -5.01305,4.72664 -14.179687,14.17968 m 79.277346,-13.85742 -10.3125,10.63477 0.64453,0.32226 10.3125,-10.63476 -0.64453,-0.32227 -9.99024,12.56836 c 0.21476,0.42976 0.32218,0.75202 0.32227,0.9668 l 11.2793,-10.95703 c -0.21495,-0.42961 -0.32237,-0.75188 -0.32227,-0.9668 l -11.2793,10.95703 m -69.287106,3.86719 0,0.9668 c 0.286438,6e-5 5.012995,-4.7265 14.179687,-14.17969 l 0,-0.9668 c -0.286492,8e-5 -5.01305,4.72664 -14.179687,14.17969 m 69.931636,-1.28906 0,0.64453 c 0.28637,6e-5 4.15356,-3.86712 11.60157,-11.60156 l 0,-0.64454 c -0.28656,8e-5 -4.15375,3.86727 -11.60157,11.60157 m -69.931636,4.18945 0,0.64453 c 0.286438,6e-5 5.012995,-4.7265 14.179687,-14.17969 l 0,-0.64453 c -0.286492,8e-5 -5.01305,4.72664 -14.179687,14.17969 m 69.931636,-1.61133 0,0.64453 0.32227,0 c 0.28637,7e-5 4.36839,-4.08196 12.24609,-12.24609 l 0,-0.64453 -0.32226,0 c -0.28656,7e-5 -4.36859,4.0821 -12.2461,12.24609 m 0.32227,2.57813 0,0.64453 c 0.4296,-0.14317 4.83389,-4.54746 13.21289,-13.21289 l 0,-0.32227 -0.32226,0 c -0.35818,0.0717 -4.65505,4.36856 -12.89063,12.89063 m -70.253906,1.61132 0,0.9668 c 0.286438,6e-5 5.012995,-4.7265 14.179687,-14.17969 l 0,-0.96679 c -0.286492,7e-5 -5.01305,4.72663 -14.179687,14.17968 m 70.253906,0.9668 0,0.64453 c 0.4296,-0.14317 5.04873,-4.7623 13.85742,-13.85742 l 0,-0.32226 -0.32226,0 c -0.42979,0.1433 -4.94151,4.65501 -13.53516,13.53515 m -70.253906,1.9336 0,0.64453 c 0.286438,5e-5 5.012995,-4.72651 14.179687,-14.17969 l 0,-0.64453 c -0.286492,7e-5 -5.01305,4.72663 -14.179687,14.17969 m 70.576176,0.64453 0,0.64453 c 0.28636,5e-5 5.01292,-4.7265 14.17968,-14.17969 l 0,-0.64453 c -0.28656,7e-5 -5.01312,4.72663 -14.17968,14.17969 m -70.576176,1.93359 0,0.9668 c 0.286438,5e-5 5.012995,-4.72651 14.179687,-14.17969 l 0,-0.9668 c -0.286492,7e-5 -5.01305,4.72663 -14.179687,14.17969 m 70.576176,0.64453 0,0.64453 c 0.28636,6e-5 5.22776,-4.94135 14.82421,-14.82422 l 0,-0.64453 c -0.28656,7e-5 -5.22796,4.94147 -14.82421,14.82422 m 0,2.90039 0,0.64453 c 0.4654,-0.17898 5.62164,-5.33523 15.46875,-15.46875 l 0,-0.64453 c -0.4656,0.1791 -5.62185,5.33535 -15.46875,15.46875 m -70.576176,-0.64453 0,0.64453 c 0.286438,5e-5 5.012995,-4.72651 14.179687,-14.17969 l 0,-0.64453 c -0.286492,7e-5 -5.01305,4.72663 -14.179687,14.17969 m 86.044926,-12.56836 -15.79102,16.11328 0,0.64453 c 0.60863,-0.35802 6.08714,-5.83653 16.43555,-16.43554 l -0.64453,-0.32227 m -86.044926,15.14649 0,0.96679 c 0.286438,5e-5 5.012995,-4.72651 14.179687,-14.17968 l 0,-0.9668 c -0.286492,6e-5 -5.01305,4.72662 -14.179687,14.17969 m 70.253906,3.54492 0,0.96679 c 0.60863,-0.35802 6.19456,-5.94396 16.75781,-16.75781 l 0,-0.96679 c -0.60883,0.35813 -6.19476,5.94406 -16.75781,16.75781 m -70.253906,-0.64453 0,0.64453 c 0.286438,4e-5 5.012995,-4.72651 14.179687,-14.17969 l 0,-0.64453 c -0.286492,6e-5 -5.01305,4.72662 -14.179687,14.17969 m 69.931636,3.86718 0,0.64454 c 0.25057,4e-5 6.05134,-5.80074 17.40235,-17.40235 l 0,-0.64453 c -0.25076,6e-5 -6.05154,5.80083 -17.40235,17.40234 m -69.931636,-1.28906 0,0.9668 c 0.286438,4e-5 5.012995,-4.72652 14.179687,-14.17969 l 0,-0.9668 c -0.286492,6e-5 -5.01305,4.72662 -14.179687,14.17969 m 69.609376,4.18945 0,0.9668 c 3.18675,-2.93616 9.20237,-8.95177 18.04687,-18.04687 l 0,-0.64453 -0.32226,0 c -3.00792,2.75721 -8.91612,8.66541 -17.72461,17.7246 m -69.609376,-1.28906 0,0.64453 c 0.286438,4e-5 5.012995,-4.72651 14.179687,-14.17968 l 0,-0.64454 c -0.286492,6e-5 -5.01305,4.72662 -14.179687,14.17969 m 68.964846,5.47853 c 5.65745,-5.40687 11.88792,-11.63734 18.6914,-18.69142 l 0,-0.64453 c -12.46103,11.99549 -18.69149,18.44079 -18.6914,19.33595 m -68.964846,-2.9004 0,0.96679 c 0.286438,4e-5 5.012995,-4.72652 14.179687,-14.17968 l 0,-0.9668 c -0.286492,5e-5 -5.01305,4.72661 -14.179687,14.17969 m 68.320316,6.4453 c 0.25056,0 6.69586,-6.44527 19.33593,-19.33593 l 0,-0.96679 c -12.67587,12.31774 -19.01376,18.76302 -19.01367,19.33592 -0.21493,0.4297 -0.32235,0.752 -0.32226,0.9668 m -68.320316,-3.5449 0,0.6445 c 0.286438,10e-5 5.012995,-4.7265 14.179687,-14.17967 l 0,-0.64453 c -0.286492,5e-5 -5.01305,4.72661 -14.179687,14.1797 m 67.353516,7.0898 0.32227,0 19.98046,-20.3027 0,-0.64453 c -13.3204,12.96227 -19.98055,19.72983 -19.98046,20.30273 l -0.32227,0.6445 m -67.353516,-4.5117 0,0.9668 c 0.286438,0 5.012995,-4.72652 14.179687,-14.17968 l 0,-0.96679 c -0.286492,4e-5 -5.01305,4.7266 -14.179687,14.17967 m 66.064456,8.7012 c 8.23558,-7.985 15.32542,-15.07485 21.26953,-21.26955 l 0,-0.96679 c -14.17978,13.82164 -21.26962,21.01894 -21.26953,21.59184 l 0,0.6445 m -66.064456,-5.8008 0,0.6445 c 0.286438,1e-4 5.012995,-4.7265 14.179687,-14.17965 l 0,-0.64453 c -0.286492,4e-5 -5.01305,4.7266 -14.179687,14.17968 m 86.689456,-13.21289 c -15.00335,15.07489 -22.52287,22.80929 -22.5586,23.20309 l -0.32226,0.6446 0.32226,0 c 15.03897,-15.1107 22.55849,-22.84504 22.5586,-23.20316 l 0.32226,-0.64453 -0.32226,0 m -86.689456,15.79099 0,0.9668 c 0.286438,10e-5 5.012995,-4.7265 14.179687,-14.17966 l 0,-0.9668 c -0.286492,4e-5 -5.01305,4.7266 -14.179687,14.17966 m 51.240234,22.5586 c 1.145761,0 3.831305,-2.3633 8.056641,-7.0898 17.831931,-17.474 26.747941,-26.49738 26.748051,-27.07033 l 0,-0.64454 c -18.58408,18.22597 -28.252035,28.10877 -29.00391,29.64847 -2.112706,1.3607 -4.046298,3.0794 -5.800782,5.1562 m -51.240234,-19.6582 0,0.6446 c 0.286438,0 5.012995,-4.7266 14.179687,-14.17974 l 0,-0.64453 c -0.286492,4e-5 -5.01305,4.72657 -14.179687,14.17967 m 0,2.5781 0,0.9668 c 0.286438,10e-5 5.012995,-4.7265 14.179687,-14.1796 l 0,-0.96684 c -0.286492,3e-5 -5.01305,4.72654 -14.179687,14.17964 m 84.755856,-13.8574 -29.326169,29.6485 0.322266,0 c 0.57284,0 10.240803,-9.5606 29.003903,-28.6817 -1e-4,-0.2148 0.10732,-0.5371 0.32227,-0.9668 l -0.32227,0 m -85.078122,17.0801 0,0.6445 c 0.286438,0 5.120418,-4.8339 14.501953,-14.5019 l 0,-0.6446 c -0.286492,10e-5 -5.120472,4.8341 -14.501953,14.502 m 83.466802,-12.8906 -23.847661,24.1699 c 1.18156,0 7.949131,-6.4453 20.302731,-19.3359 2.57803,-2.1126 3.86709,-3.724 3.86719,-4.834 l -0.32226,0 m -84.433599,17.4023 0.322266,0 15.146484,-15.4687 0,-0.9668 c -10.09768,9.7038 -15.146503,14.86 -15.146484,15.4687 -1.9e-5,0.2149 -0.107441,0.5371 -0.322266,0.9668 m -1.933593,4.5117 0.322265,0 17.080078,-17.4023 0,-0.6445 c -11.601585,11.136 -17.40236,17.1517 -17.402343,18.0468 m 83.466792,-16.1132 -15.14648,15.4687 0.32227,0 c 10.09756,-9.2741 15.14638,-14.4303 15.14648,-15.4687 l -0.32227,0 m -87.656245,22.2363 0.966796,0 c 0.286445,0 7.161438,-6.875 20.625,-20.625 l 0,-0.9668 c -6.731798,6.4453 -13.929057,13.6426 -21.591796,21.5918 m 2.90039,0 0.644531,0 c 3.18683,-2.9362 9.202449,-8.9518 18.046875,-18.0469 l 0,-0.6445 c -5.657581,5.4069 -11.888043,11.6374 -18.691406,18.6914 m 2.578125,0 0.966797,0 c 0.286439,0 5.335262,-5.0488 15.146484,-15.1465 l 0,-0.9668 c -0.286492,0 -5.657581,5.3711 -16.113281,16.1133 m 2.900391,0 0.644531,0 c 0.286436,0 4.475885,-4.1895 12.568359,-12.5684 l 0,-0.6445 c -0.429721,0.1432 -4.834014,4.5475 -13.21289,13.2129 m 2.578125,0 0.966797,0 c 0.250626,0 3.473279,-3.2227 9.667968,-9.668 l 0,-0.9668 c -0.322299,0.072 -3.867218,3.6166 -10.634765,10.6348 m 2.90039,0 0.644532,0 c 0.28643,0 2.649709,-2.3633 7.089843,-7.0899 l 0,-0.6445 c -0.286492,0 -2.864615,2.5781 -7.734375,7.7344 m 2.578125,0 0.966797,0 c 0.322235,0 1.718718,-1.3965 4.189453,-4.1895 l 0,-0.9668 c -0.286492,0 -2.00524,1.7188 -5.15625,5.1563 m 2.900391,0 0.644531,0 c 0.286425,0 0.823534,-0.5371 1.611328,-1.6113 l 0,-0.6446 c -0.322299,0 -1.074252,0.752 -2.255859,2.2559 m 36.09375,-0.6445 c 1.3248,-0.4297 2.076753,-0.9668 2.255859,-1.6114 -1.396553,0.5729 -2.148506,1.1101 -2.255859,1.6114 m -58.007812,0.6445 0.644531,0 c 0.286447,0 0.823556,-0.5371 1.611328,-1.6113 -1.396496,0.5729 -2.148448,1.11 -2.255859,1.6113"
       id="path3027" />
  </g>
</svg>
